<svg width="68" height="31" viewBox="0 0 68 31" fill="none" xmlns="http://www.w3.org/2000/svg">
<path d="M10.7674 13.6279H11.0233V13.8837H10.7674V13.6279ZM10.5116 13.8837H10.7674V14.1395H10.5116V13.8837ZM11.0233 13.3721H11.2791V13.6279H11.0233V13.3721ZM11.2791 13.1163H11.5349V13.3721H11.2791V13.1163ZM11.7907 12.6047H12.0465V12.8605H11.7907V12.6047ZM11.7907 12.8605H12.0465V13.1163H11.7907V12.8605ZM12.3023 12.6047H12.5581V12.8605H12.3023V12.6047ZM12.3023 12.8605H12.5581V13.1163H12.3023V12.8605ZM12.0465 12.8605H12.3023V13.1163H12.0465V12.8605ZM12.0465 12.6047H12.3023V12.8605H12.0465V12.6047ZM12.5581 12.6047H12.814V12.8605H12.5581V12.6047ZM12.814 12.8605H13.0698V13.1163H12.814V12.8605ZM12.5581 12.8605H12.814V13.1163H12.5581V12.8605ZM13.3256 12.8605H13.5814V13.1163H13.3256V12.8605ZM13.0698 12.8605H13.3256V13.1163H13.0698V12.8605ZM13.8372 13.1163H14.093V13.3721H13.8372V13.1163ZM13.8372 13.3721H14.093V13.6279H13.8372V13.3721ZM13.8372 13.6279H14.093V13.8837H13.8372V13.6279ZM13.5814 13.3721H13.8372V13.6279H13.5814V13.3721ZM13.5814 13.1163H13.8372V13.3721H13.5814V13.1163ZM13.5814 12.8605H13.8372V13.1163H13.5814V12.8605ZM15.3721 12.8605H15.6279V13.1163H15.3721V12.8605ZM15.6279 12.6047H15.8837V12.8605H15.6279V12.6047ZM15.8837 12.6047H16.1395V12.8605H15.8837V12.6047ZM15.8837 12.8605H16.1395V13.1163H15.8837V12.8605ZM15.6279 12.8605H15.8837V13.1163H15.6279V12.8605ZM16.3953 13.1163H16.6512V13.3721H16.3953V13.1163ZM14.093 13.3721H14.3488V13.6279H14.093V13.3721ZM14.093 13.6279H14.3488V13.8837H14.093V13.6279ZM14.3488 13.6279H14.6047V13.8837H14.3488V13.6279ZM14.6047 13.6279H14.8605V13.8837H14.6047V13.6279ZM14.8605 13.6279H15.1163V13.8837H14.8605V13.6279ZM14.8605 13.8837H15.1163V14.1395H14.8605V13.8837ZM14.6047 13.8837H14.8605V14.1395H14.6047V13.8837ZM14.3488 13.8837H14.6047V14.1395H14.3488V13.8837ZM13.0698 14.1395H13.3256V14.3953H13.0698V14.1395ZM13.0698 14.3953H13.3256V14.6512H13.0698V14.3953ZM14.3488 14.1395H14.6047V14.3953H14.3488V14.1395ZM14.6047 14.1395H14.8605V14.3953H14.6047V14.1395ZM14.8605 14.1395H15.1163V14.3953H14.8605V14.1395ZM14.8605 14.3953H15.1163V14.6512H14.8605V14.3953ZM14.6047 14.6512H14.8605V14.907H14.6047V14.6512ZM14.3488 14.6512H14.6047V14.907H14.3488V14.6512ZM14.6047 14.3953H14.8605V14.6512H14.6047V14.3953ZM14.3488 14.3953H14.6047V14.6512H14.3488V14.3953ZM14.093 14.907H14.3488V15.1628H14.093V14.907ZM14.093 14.6512H14.3488V14.907H14.093V14.6512ZM14.3488 14.907H14.6047V15.1628H14.3488V14.907ZM14.6047 14.907H14.8605V15.1628H14.6047V14.907ZM12.814 14.1395H13.0698V14.3953H12.814V14.1395ZM12.814 14.3953H13.0698V14.6512H12.814V14.3953ZM12.814 14.6512H13.0698V14.907H12.814V14.6512ZM12.814 14.907H13.0698V15.1628H12.814V14.907ZM13.0698 16.186H13.3256V16.4419H13.0698V16.186ZM13.3256 16.186H13.5814V16.4419H13.3256V16.186ZM14.093 15.1628H14.3488V15.4186H14.093V15.1628ZM14.093 15.4186H14.3488V15.6744H14.093V15.4186ZM14.093 15.6744H14.3488V15.9302H14.093V15.6744ZM14.093 15.9302H14.3488V16.186H14.093V15.9302ZM14.3488 15.1628H14.6047V15.4186H14.3488V15.1628ZM14.3488 15.4186H14.6047V15.6744H14.3488V15.4186ZM14.3488 15.6744H14.6047V15.9302H14.3488V15.6744ZM14.3488 15.9302H14.6047V16.186H14.3488V15.9302ZM14.093 16.4419H14.3488V16.6977H14.093V16.4419ZM14.3488 16.4419H14.6047V16.6977H14.3488V16.4419ZM14.6047 16.186H14.8605V16.4419H14.6047V16.186ZM14.6047 15.9302H14.8605V16.186H14.6047V15.9302ZM14.6047 15.6744H14.8605V15.9302H14.6047V15.6744ZM14.6047 15.4186H14.8605V15.6744H14.6047V15.4186ZM14.6047 15.1628H14.8605V15.4186H14.6047V15.1628ZM14.6047 16.4419H14.8605V16.6977H14.6047V16.4419ZM14.8605 16.6977H15.1163V16.9535H14.8605V16.6977ZM14.8605 16.9535H15.1163V17.2093H14.8605V16.9535ZM14.6047 16.9535H14.8605V17.2093H14.6047V16.9535ZM14.3488 16.9535H14.6047V17.2093H14.3488V16.9535ZM14.093 16.9535H14.3488V17.2093H14.093V16.9535ZM14.093 16.6977H14.3488V16.9535H14.093V16.6977ZM14.3488 16.6977H14.6047V16.9535H14.3488V16.6977ZM14.6047 16.6977H14.8605V16.9535H14.6047V16.6977ZM11.5349 17.4651H11.7907V17.7209H11.5349V17.4651ZM11.2791 17.7209H11.5349V17.9767H11.2791V17.7209ZM11.0233 17.9767H11.2791V18.2326H11.0233V17.9767ZM14.093 17.2093H14.3488V17.4651H14.093V17.2093ZM14.3488 17.2093H14.6047V17.4651H14.3488V17.2093ZM14.6047 17.2093H14.8605V17.4651H14.6047V17.2093ZM14.8605 17.2093H15.1163V17.4651H14.8605V17.2093ZM11.2791 17.9767H11.5349V18.2326H11.2791V17.9767ZM11.5349 17.9767H11.7907V18.2326H11.5349V17.9767ZM11.5349 18.2326H11.7907V18.4884H11.5349V18.2326ZM11.2791 18.2326H11.5349V18.4884H11.2791V18.2326ZM11.7907 18.2326H12.0465V18.4884H11.7907V18.2326ZM13.0698 17.9767H13.3256V18.2326H13.0698V17.9767ZM13.0698 18.2326H13.3256V18.4884H13.0698V18.2326ZM12.814 18.2326H13.0698V18.4884H12.814V18.2326ZM13.3256 17.7209H13.5814V17.9767H13.3256V17.7209ZM14.093 17.4651H14.3488V17.7209H14.093V17.4651ZM14.3488 17.4651H14.6047V17.7209H14.3488V17.4651ZM14.6047 17.4651H14.8605V17.7209H14.6047V17.4651ZM14.8605 17.4651H15.1163V17.7209H14.8605V17.4651ZM14.8605 17.7209H15.1163V17.9767H14.8605V17.7209ZM14.6047 17.7209H14.8605V17.9767H14.6047V17.7209ZM14.3488 17.7209H14.6047V17.9767H14.3488V17.7209ZM14.093 17.7209H14.3488V17.9767H14.093V17.7209ZM14.093 17.9767H14.3488V18.2326H14.093V17.9767ZM14.093 18.2326H14.3488V18.4884H14.093V18.2326ZM14.3488 18.2326H14.6047V18.4884H14.3488V18.2326ZM14.6047 18.2326H14.8605V18.4884H14.6047V18.2326ZM14.6047 17.9767H14.8605V18.2326H14.6047V17.9767ZM14.8605 17.9767H15.1163V18.2326H14.8605V17.9767ZM14.3488 17.9767H14.6047V18.2326H14.3488V17.9767ZM14.8605 18.2326H15.1163V18.4884H14.8605V18.2326ZM14.6047 18.4884H14.8605V18.7442H14.6047V18.4884ZM14.6047 18.7442H14.8605V19H14.6047V18.7442ZM14.8605 18.7442H15.1163V19H14.8605V18.7442ZM14.8605 18.4884H15.1163V18.7442H14.8605V18.4884ZM15.3721 18.4884H15.6279V18.7442H15.3721V18.4884ZM15.3721 18.7442H15.6279V19H15.3721V18.7442ZM15.1163 18.7442H15.3721V19H15.1163V18.7442ZM15.8837 17.9767H16.1395V18.2326H15.8837V17.9767ZM15.8837 18.2326H16.1395V18.4884H15.8837V18.2326ZM15.6279 18.2326H15.8837V18.4884H15.6279V18.2326ZM15.6279 18.4884H15.8837V18.7442H15.6279V18.4884ZM14.3488 18.4884H14.6047V18.7442H14.3488V18.4884ZM12.5581 18.4884H12.814V18.7442H12.5581V18.4884ZM12.3023 18.4884H12.5581V18.7442H12.3023V18.4884ZM12.3023 18.7442H12.5581V19H12.3023V18.7442ZM12.5581 18.7442H12.814V19H12.5581V18.7442ZM12.0465 18.4884H12.3023V18.7442H12.0465V18.4884ZM11.7907 18.7442H12.0465V19H11.7907V18.7442ZM12.0465 18.7442H12.3023V19H12.0465V18.7442ZM11.7907 18.4884H12.0465V18.7442H11.7907V18.4884ZM12.814 18.4884H13.0698V18.7442H12.814V18.4884ZM13.3256 17.9767H13.5814V18.2326H13.3256V17.9767ZM16.1395 12.8605H16.3953V13.1163H16.1395V12.8605ZM10.7674 18.2326H11.0233V18.4884H10.7674V18.2326ZM11.5349 17.7209H11.7907V17.9767H11.5349V17.7209ZM15.1163 18.4884H15.3721V18.7442H15.1163V18.4884ZM10.5116 18.4884H10.7674V18.7442H10.5116V18.4884ZM12.814 15.9302H13.0698V16.186H12.814V15.9302ZM12.814 15.4186H13.0698V15.6744H12.814V15.4186ZM12.814 15.6744H13.0698V15.9302H12.814V15.6744ZM12.814 15.1628H13.0698V15.4186H12.814V15.1628ZM13.0698 14.6512H13.3256V14.907H13.0698V14.6512ZM13.0698 14.907H13.3256V15.1628H13.0698V14.907ZM12.0465 16.9535H12.3023V17.2093H12.0465V16.9535ZM13.3256 13.1163H13.5814V13.3721H13.3256V13.1163ZM14.8605 16.4419H15.1163V16.6977H14.8605V16.4419ZM11.5349 18.4884H11.7907V18.7442H11.5349V18.4884ZM12.3023 13.8837H12.5581V14.1395H12.3023V13.8837ZM12.5581 13.8837H12.814V14.1395H12.5581V13.8837ZM12.814 13.8837H13.0698V14.1395H12.814V13.8837ZM12.814 12.6047H13.0698V12.8605H12.814V12.6047ZM12.5581 16.4419H12.814V16.6977H12.5581V16.4419ZM16.1395 17.7209H16.3953V17.9767H16.1395V17.7209ZM11.7907 17.2093H12.0465V17.4651H11.7907V17.2093ZM12.3023 16.6977H12.5581V16.9535H12.3023V16.6977ZM12.3023 16.9535H12.5581V17.2093H12.3023V16.9535ZM12.0465 17.2093H12.3023V17.4651H12.0465V17.2093ZM11.7907 17.4651H12.0465V17.7209H11.7907V17.4651ZM11.7907 17.7209H12.0465V17.9767H11.7907V17.7209ZM12.814 16.186H13.0698V16.4419H12.814V16.186ZM13.5814 16.186H13.8372V16.4419H13.5814V16.186ZM12.814 16.4419H13.0698V16.6977H12.814V16.4419ZM13.0698 16.4419H13.3256V16.6977H13.0698V16.4419ZM13.3256 16.4419H13.5814V16.6977H13.3256V16.4419ZM13.0698 15.1628H13.3256V15.4186H13.0698V15.1628ZM16.1395 17.9767H16.3953V18.2326H16.1395V17.9767ZM15.1163 18.2326H15.3721V18.4884H15.1163V18.2326ZM15.1163 13.1163H15.3721V13.3721H15.1163V13.1163ZM16.6512 13.3721H16.907V13.6279H16.6512V13.3721ZM13.0698 15.4186H13.3256V15.6744H13.0698V15.4186ZM13.0698 15.6744H13.3256V15.9302H13.0698V15.6744ZM13.0698 15.9302H13.3256V16.186H13.0698V15.9302ZM14.3488 16.186H14.6047V16.4419H14.3488V16.186ZM14.093 16.186H14.3488V16.4419H14.093V16.186ZM15.3721 18.2326H15.6279V18.4884H15.3721V18.2326ZM12.0465 18.2326H12.3023V18.4884H12.0465V18.2326ZM12.3023 18.2326H12.5581V18.4884H12.3023V18.2326ZM12.5581 18.2326H12.814V18.4884H12.5581V18.2326ZM10.2558 18.7442H10.5116V19H10.2558V18.7442ZM13.0698 12.6047H13.3256V12.8605H13.0698V12.6047ZM10.7674 17.9767H11.0233V18.2326H10.7674V17.9767ZM10.5116 18.2326H10.7674V18.4884H10.5116V18.2326ZM10.2558 18.4884H10.5116V18.7442H10.2558V18.4884ZM11.0233 18.2326H11.2791V18.4884H11.0233V18.2326ZM13.8372 16.186H14.093V16.4419H13.8372V16.186ZM13.5814 16.4419H13.8372V16.6977H13.5814V16.4419ZM14.093 13.8837H14.3488V14.1395H14.093V13.8837ZM14.6047 13.3721H14.8605V13.6279H14.6047V13.3721ZM14.8605 13.3721H15.1163V13.6279H14.8605V13.3721ZM14.3488 13.3721H14.6047V13.6279H14.3488V13.3721ZM14.093 13.1163H14.3488V13.3721H14.093V13.1163ZM13.0698 13.1163H13.3256V13.3721H13.0698V13.1163ZM14.093 14.1395H14.3488V14.3953H14.093V14.1395ZM11.0233 17.7209H11.2791V17.9767H11.0233V17.7209ZM11.7907 17.9767H12.0465V18.2326H11.7907V17.9767ZM12.0465 17.9767H12.3023V18.2326H12.0465V17.9767ZM12.5581 13.6279H12.814V13.8837H12.5581V13.6279ZM13.3256 13.3721H13.5814V13.6279H13.3256V13.3721ZM13.5814 13.6279H13.8372V13.8837H13.5814V13.6279ZM13.8372 13.8837H14.093V14.1395H13.8372V13.8837ZM14.093 14.3953H14.3488V14.6512H14.093V14.3953ZM13.3256 14.3953H13.5814V14.6512H13.3256V14.3953ZM13.3256 14.6512H13.5814V14.907H13.3256V14.6512ZM13.3256 14.907H13.5814V15.1628H13.3256V14.907ZM13.3256 15.1628H13.5814V15.4186H13.3256V15.1628ZM13.3256 15.4186H13.5814V15.6744H13.3256V15.4186ZM13.3256 15.6744H13.5814V15.9302H13.3256V15.6744ZM13.3256 15.9302H13.5814V16.186H13.3256V15.9302ZM12.0465 14.1395H12.3023V14.3953H12.0465V14.1395ZM11.7907 14.3953H12.0465V14.6512H11.7907V14.3953ZM11.5349 14.6512H11.7907V14.907H11.5349V14.6512ZM12.3023 14.1395H12.5581V14.3953H12.3023V14.1395ZM12.0465 14.3953H12.3023V14.6512H12.0465V14.3953ZM11.7907 14.6512H12.0465V14.907H11.7907V14.6512ZM11.5349 14.907H11.7907V15.1628H11.5349V14.907ZM12.5581 14.1395H12.814V14.3953H12.5581V14.1395ZM12.5581 14.3953H12.814V14.6512H12.5581V14.3953ZM15.3721 13.1163H15.6279V13.3721H15.3721V13.1163ZM15.1163 13.3721H15.3721V13.6279H15.1163V13.3721ZM16.1395 13.1163H16.3953V13.3721H16.1395V13.1163ZM15.8837 13.1163H16.1395V13.3721H15.8837V13.1163ZM16.1395 13.3721H16.3953V13.6279H16.1395V13.3721ZM16.3953 13.3721H16.6512V13.6279H16.3953V13.3721ZM15.6279 13.1163H15.8837V13.3721H15.6279V13.1163ZM15.8837 13.3721H16.1395V13.6279H15.8837V13.3721ZM16.1395 13.6279H16.3953V13.8837H16.1395V13.6279ZM16.3953 13.6279H16.6512V13.8837H16.3953V13.6279ZM15.6279 13.3721H15.8837V13.6279H15.6279V13.3721ZM15.8837 13.6279H16.1395V13.8837H15.8837V13.6279ZM16.1395 13.8837H16.3953V14.1395H16.1395V13.8837ZM10.5116 14.1395H10.7674V14.3953H10.5116V14.1395ZM10.7674 13.8837H11.0233V14.1395H10.7674V13.8837ZM11.0233 13.6279H11.2791V13.8837H11.0233V13.6279ZM11.2791 13.3721H11.5349V13.6279H11.2791V13.3721ZM11.5349 13.1163H11.7907V13.3721H11.5349V13.1163ZM11.5349 12.8605H11.7907V13.1163H11.5349V12.8605ZM13.3256 12.6047H13.5814V12.8605H13.3256V12.6047ZM13.8372 12.8605H14.093V13.1163H13.8372V12.8605ZM14.3488 13.1163H14.6047V13.3721H14.3488V13.1163ZM14.093 12.8605H14.3488V13.1163H14.093V12.8605ZM13.8372 12.6047H14.093V12.8605H13.8372V12.6047ZM13.5814 12.6047H13.8372V12.8605H13.5814V12.6047ZM12.3023 14.3953H12.5581V14.6512H12.3023V14.3953ZM12.5581 14.6512H12.814V14.907H12.5581V14.6512ZM12.3023 14.6512H12.5581V14.907H12.3023V14.6512ZM12.5581 14.907H12.814V15.1628H12.5581V14.907ZM12.814 16.6977H13.0698V16.9535H12.814V16.6977ZM12.5581 16.6977H12.814V16.9535H12.5581V16.6977ZM12.5581 16.9535H12.814V17.2093H12.5581V16.9535ZM12.3023 17.2093H12.5581V17.4651H12.3023V17.2093ZM12.0465 17.4651H12.3023V17.7209H12.0465V17.4651ZM14.8605 16.186H15.1163V16.4419H14.8605V16.186ZM14.8605 15.9302H15.1163V16.186H14.8605V15.9302ZM14.8605 15.6744H15.1163V15.9302H14.8605V15.6744ZM14.8605 15.4186H15.1163V15.6744H14.8605V15.4186ZM14.8605 15.1628H15.1163V15.4186H14.8605V15.1628ZM14.8605 14.907H15.1163V15.1628H14.8605V14.907ZM14.8605 14.6512H15.1163V14.907H14.8605V14.6512ZM17.6767 13.1163H17.9325V13.3721H17.6767V13.1163ZM17.4209 13.1163H17.6767V13.3721H17.4209V13.1163ZM17.4209 13.3721H17.6767V13.6279H17.4209V13.3721ZM17.9325 12.8605H18.1883V13.1163H17.9325V12.8605ZM17.9325 12.6047H18.1883V12.8605H17.9325V12.6047ZM18.1883 12.6047H18.4441V12.8605H18.1883V12.6047ZM18.1883 12.8605H18.4441V13.1163H18.1883V12.8605ZM18.4441 12.6047H18.6999V12.8605H18.4441V12.6047ZM18.6999 12.8605H18.9557V13.1163H18.6999V12.8605ZM18.4441 12.8605H18.6999V13.1163H18.4441V12.8605ZM18.4441 13.1163H18.6999V13.3721H18.4441V13.1163ZM18.6999 13.1163H18.9557V13.3721H18.6999V13.1163ZM18.6999 13.3721H18.9557V13.6279H18.6999V13.3721ZM18.9557 13.1163H19.2116V13.3721H18.9557V13.1163ZM19.2116 13.1163H19.4674V13.3721H19.2116V13.1163ZM19.2116 13.3721H19.4674V13.6279H19.2116V13.3721ZM18.9557 13.3721H19.2116V13.6279H18.9557V13.3721ZM19.7232 13.6279H19.979V13.8837H19.7232V13.6279ZM19.4674 13.6279H19.7232V13.8837H19.4674V13.6279ZM19.4674 13.8837H19.7232V14.1395H19.4674V13.8837ZM19.7232 13.8837H19.979V14.1395H19.7232V13.8837ZM19.7232 14.1395H19.979V14.3953H19.7232V14.1395ZM19.7232 14.3953H19.979V14.6512H19.7232V14.3953ZM19.4674 14.3953H19.7232V14.6512H19.4674V14.3953ZM19.4674 14.1395H19.7232V14.3953H19.4674V14.1395ZM19.4674 14.6512H19.7232V14.907H19.4674V14.6512ZM19.4674 14.907H19.7232V15.1628H19.4674V14.907ZM19.7232 14.907H19.979V15.1628H19.7232V14.907ZM19.7232 14.6512H19.979V14.907H19.7232V14.6512ZM19.4674 15.1628H19.7232V15.4186H19.4674V15.1628ZM19.7232 15.1628H19.979V15.4186H19.7232V15.1628ZM19.7232 15.4186H19.979V15.6744H19.7232V15.4186ZM19.4674 15.4186H19.7232V15.6744H19.4674V15.4186ZM19.4674 15.6744H19.7232V15.9302H19.4674V15.6744ZM19.4674 15.9302H19.7232V16.186H19.4674V15.9302ZM19.7232 15.9302H19.979V16.186H19.7232V15.9302ZM19.7232 15.6744H19.979V15.9302H19.7232V15.6744ZM21.0022 13.6279H21.2581V13.8837H21.0022V13.6279ZM21.2581 13.6279H21.5139V13.8837H21.2581V13.6279ZM21.2581 13.8837H21.5139V14.1395H21.2581V13.8837ZM21.2581 14.1395H21.5139V14.3953H21.2581V14.1395ZM21.2581 14.3953H21.5139V14.6512H21.2581V14.3953ZM21.2581 14.6512H21.5139V14.907H21.2581V14.6512ZM21.2581 14.907H21.5139V15.1628H21.2581V14.907ZM21.2581 15.1628H21.5139V15.4186H21.2581V15.1628ZM21.2581 15.4186H21.5139V15.6744H21.2581V15.4186ZM21.0022 15.4186H21.2581V15.6744H21.0022V15.4186ZM21.0022 15.6744H21.2581V15.9302H21.0022V15.6744ZM21.0022 15.9302H21.2581V16.186H21.0022V15.9302ZM21.2581 15.9302H21.5139V16.186H21.2581V15.9302ZM21.2581 15.6744H21.5139V15.9302H21.2581V15.6744ZM21.0022 15.1628H21.2581V15.4186H21.0022V15.1628ZM21.0022 13.8837H21.2581V14.1395H21.0022V13.8837ZM19.4674 17.2093H19.7232V17.4651H19.4674V17.2093ZM19.4674 16.9535H19.7232V17.2093H19.4674V16.9535ZM19.4674 16.6977H19.7232V16.9535H19.4674V16.6977ZM19.4674 16.4419H19.7232V16.6977H19.4674V16.4419ZM19.7232 16.4419H19.979V16.6977H19.7232V16.4419ZM19.7232 16.186H19.979V16.4419H19.7232V16.186ZM19.7232 16.6977H19.979V16.9535H19.7232V16.6977ZM19.7232 16.9535H19.979V17.2093H19.7232V16.9535ZM19.7232 17.2093H19.979V17.4651H19.7232V17.2093ZM19.4674 16.186H19.7232V16.4419H19.4674V16.186ZM21.0022 17.4651H21.2581V17.7209H21.0022V17.4651ZM21.2581 17.4651H21.5139V17.7209H21.2581V17.4651ZM21.2581 17.2093H21.5139V17.4651H21.2581V17.2093ZM21.2581 16.9535H21.5139V17.2093H21.2581V16.9535ZM21.2581 16.6977H21.5139V16.9535H21.2581V16.6977ZM21.2581 16.4419H21.5139V16.6977H21.2581V16.4419ZM21.2581 16.186H21.5139V16.4419H21.2581V16.186ZM21.0022 16.186H21.2581V16.4419H21.0022V16.186ZM21.0022 16.4419H21.2581V16.6977H21.0022V16.4419ZM21.0022 16.6977H21.2581V16.9535H21.0022V16.6977ZM21.0022 16.9535H21.2581V17.2093H21.0022V16.9535ZM21.0022 17.2093H21.2581V17.4651H21.0022V17.2093ZM17.6767 12.8605H17.9325V13.1163H17.6767V12.8605ZM18.6999 12.6047H18.9557V12.8605H18.6999V12.6047ZM18.9557 12.8605H19.2116V13.1163H18.9557V12.8605ZM19.7232 13.3721H19.979V13.6279H19.7232V13.3721ZM19.2116 13.6279H19.4674V13.8837H19.2116V13.6279ZM19.4674 13.3721H19.7232V13.6279H19.4674V13.3721ZM18.9557 13.6279H19.2116V13.8837H18.9557V13.6279ZM19.2116 13.8837H19.4674V14.1395H19.2116V13.8837ZM18.9557 12.6047H19.2116V12.8605H18.9557V12.6047ZM19.2116 12.8605H19.4674V13.1163H19.2116V12.8605ZM19.4674 13.1163H19.7232V13.3721H19.4674V13.1163ZM18.1883 13.1163H18.4441V13.3721H18.1883V13.1163ZM18.4441 13.3721H18.6999V13.6279H18.4441V13.3721ZM18.6999 13.6279H18.9557V13.8837H18.6999V13.6279ZM18.9557 13.8837H19.2116V14.1395H18.9557V13.8837ZM19.2116 14.1395H19.4674V14.3953H19.2116V14.1395ZM21.0022 17.7209H21.2581V17.9767H21.0022V17.7209ZM21.0022 17.9767H21.2581V18.2326H21.0022V17.9767ZM21.2581 17.9767H21.5139V18.2326H21.2581V17.9767ZM21.2581 18.2326H21.5139V18.4884H21.2581V18.2326ZM21.2581 17.7209H21.5139V17.9767H21.2581V17.7209ZM21.0022 18.2326H21.2581V18.4884H21.0022V18.2326ZM20.7464 18.2326H21.0022V18.4884H20.7464V18.2326ZM20.4906 18.2326H20.7464V18.4884H20.4906V18.2326ZM19.979 13.6279H20.2348V13.8837H19.979V13.6279ZM20.2348 13.6279H20.4906V13.8837H20.2348V13.6279ZM20.2348 13.8837H20.4906V14.1395H20.2348V13.8837ZM20.2348 14.1395H20.4906V14.3953H20.2348V14.1395ZM20.2348 14.3953H20.4906V14.6512H20.2348V14.3953ZM20.2348 14.6512H20.4906V14.907H20.2348V14.6512ZM20.2348 15.1628H20.4906V15.4186H20.2348V15.1628ZM20.2348 15.6744H20.4906V15.9302H20.2348V15.6744ZM20.2348 15.9302H20.4906V16.186H20.2348V15.9302ZM20.2348 16.186H20.4906V16.4419H20.2348V16.186ZM20.2348 16.4419H20.4906V16.6977H20.2348V16.4419ZM20.2348 16.6977H20.4906V16.9535H20.2348V16.6977ZM20.2348 17.2093H20.4906V17.4651H20.2348V17.2093ZM20.2348 16.9535H20.4906V17.2093H20.2348V16.9535ZM20.2348 15.4186H20.4906V15.6744H20.2348V15.4186ZM20.2348 14.907H20.4906V15.1628H20.2348V14.907ZM19.979 13.8837H20.2348V14.1395H19.979V13.8837ZM19.979 14.1395H20.2348V14.3953H19.979V14.1395ZM19.979 14.3953H20.2348V14.6512H19.979V14.3953ZM19.979 15.1628H20.2348V15.4186H19.979V15.1628ZM19.979 15.4186H20.2348V15.6744H19.979V15.4186ZM19.979 15.6744H20.2348V15.9302H19.979V15.6744ZM19.979 15.9302H20.2348V16.186H19.979V15.9302ZM19.979 16.186H20.2348V16.4419H19.979V16.186ZM19.979 16.4419H20.2348V16.6977H19.979V16.4419ZM19.979 16.6977H20.2348V16.9535H19.979V16.6977ZM19.979 16.9535H20.2348V17.2093H19.979V16.9535ZM19.979 17.2093H20.2348V17.4651H19.979V17.2093ZM19.979 14.907H20.2348V15.1628H19.979V14.907ZM19.979 14.6512H20.2348V14.907H19.979V14.6512ZM21.0022 14.907H21.2581V15.1628H21.0022V14.907ZM21.0022 14.6512H21.2581V14.907H21.0022V14.6512ZM21.0022 14.3953H21.2581V14.6512H21.0022V14.3953ZM21.0022 14.1395H21.2581V14.3953H21.0022V14.1395ZM19.7232 18.2326H19.979V18.4884H19.7232V18.2326ZM19.979 18.2326H20.2348V18.4884H19.979V18.2326ZM20.2348 18.2326H20.4906V18.4884H20.2348V18.2326ZM19.4674 17.9767H19.7232V18.2326H19.4674V17.9767ZM19.7232 17.9767H19.979V18.2326H19.7232V17.9767ZM19.979 17.9767H20.2348V18.2326H19.979V17.9767ZM19.7232 18.4884H19.979V18.7442H19.7232V18.4884ZM19.7232 18.7442H19.979V19H19.7232V18.7442ZM19.4674 18.4884H19.7232V18.7442H19.4674V18.4884ZM19.4674 18.2326H19.7232V18.4884H19.4674V18.2326ZM20.2348 17.9767H20.4906V18.2326H20.2348V17.9767ZM20.4906 17.9767H20.7464V18.2326H20.4906V17.9767ZM20.7464 17.9767H21.0022V18.2326H20.7464V17.9767ZM19.2116 17.9767H19.4674V18.2326H19.2116V17.9767ZM18.9557 17.9767H19.2116V18.2326H18.9557V17.9767ZM18.9557 18.2326H19.2116V18.4884H18.9557V18.2326ZM19.2116 18.2326H19.4674V18.4884H19.2116V18.2326ZM18.6999 18.4884H18.9557V18.7442H18.6999V18.4884ZM18.4441 18.7442H18.6999V19H18.4441V18.7442ZM19.979 18.4884H20.2348V18.7442H19.979V18.4884ZM20.2348 18.4884H20.4906V18.7442H20.2348V18.4884ZM20.2348 18.7442H20.4906V19H20.2348V18.7442ZM19.979 18.7442H20.2348V19H19.979V18.7442ZM20.4906 18.4884H20.7464V18.7442H20.4906V18.4884ZM20.7464 18.4884H21.0022V18.7442H20.7464V18.4884ZM20.4906 18.7442H20.7464V19H20.4906V18.7442ZM21.7697 18.4884H22.0255V18.7442H21.7697V18.4884ZM21.5139 18.4884H21.7697V18.7442H21.5139V18.4884ZM21.7697 18.7442H22.0255V19H21.7697V18.7442ZM22.0255 18.7442H22.2813V19H22.0255V18.7442ZM22.2813 18.4884H22.5371V18.7442H22.2813V18.4884ZM22.0255 18.4884H22.2813V18.7442H22.0255V18.4884ZM21.5139 17.9767H21.7697V18.2326H21.5139V17.9767ZM21.7697 17.9767H22.0255V18.2326H21.7697V17.9767ZM22.0255 17.9767H22.2813V18.2326H22.0255V17.9767ZM22.2813 17.9767H22.5371V18.2326H22.2813V17.9767ZM22.2813 18.2326H22.5371V18.4884H22.2813V18.2326ZM22.0255 18.2326H22.2813V18.4884H22.0255V18.2326ZM21.7697 18.2326H22.0255V18.4884H21.7697V18.2326ZM21.5139 18.2326H21.7697V18.4884H21.5139V18.2326ZM22.5371 17.9767H22.7929V18.2326H22.5371V17.9767ZM22.7929 17.9767H23.0488V18.2326H22.7929V17.9767ZM22.5371 18.2326H22.7929V18.4884H22.5371V18.2326ZM23.0488 17.7209H23.3046V17.9767H23.0488V17.7209ZM23.0488 17.4651H23.3046V17.7209H23.0488V17.4651ZM21.5139 13.3721H21.7697V13.6279H21.5139V13.3721ZM21.7697 13.3721H22.0255V13.6279H21.7697V13.3721ZM21.7697 13.1163H22.0255V13.3721H21.7697V13.1163ZM20.4906 13.3721H20.7464V13.6279H20.4906V13.3721ZM20.7464 13.3721H21.0022V13.6279H20.7464V13.3721ZM21.0022 13.3721H21.2581V13.6279H21.0022V13.3721ZM20.2348 13.3721H20.4906V13.6279H20.2348V13.3721ZM20.4906 13.1163H20.7464V13.3721H20.4906V13.1163ZM20.7464 13.1163H21.0022V13.3721H20.7464V13.1163ZM21.5139 13.6279H21.7697V13.8837H21.5139V13.6279ZM18.6999 18.2326H18.9557V18.4884H18.6999V18.2326ZM18.4441 18.4884H18.6999V18.7442H18.4441V18.4884ZM22.7929 17.7209H23.0488V17.9767H22.7929V17.7209ZM21.5139 17.7209H21.7697V17.9767H21.5139V17.7209ZM19.2116 14.6512H19.4674V14.907H19.2116V14.6512ZM18.9557 14.6512H19.2116V14.907H18.9557V14.6512ZM18.9557 14.907H19.2116V15.1628H18.9557V14.907ZM19.2116 14.907H19.4674V15.1628H19.2116V14.907ZM19.2116 15.6744H19.4674V15.9302H19.2116V15.6744ZM18.9557 15.6744H19.2116V15.9302H18.9557V15.6744ZM18.9557 15.9302H19.2116V16.186H18.9557V15.9302ZM19.2116 15.9302H19.4674V16.186H19.2116V15.9302ZM18.6999 14.6512H18.9557V14.907H18.6999V14.6512ZM18.4441 14.6512H18.6999V14.907H18.4441V14.6512ZM18.4441 14.907H18.6999V15.1628H18.4441V14.907ZM18.6999 14.907H18.9557V15.1628H18.6999V14.907ZM18.6999 15.6744H18.9557V15.9302H18.6999V15.6744ZM18.4441 15.6744H18.6999V15.9302H18.4441V15.6744ZM18.4441 15.9302H18.6999V16.186H18.4441V15.9302ZM18.6999 15.9302H18.9557V16.186H18.6999V15.9302ZM24.3241 13.6279H24.5799V13.8837H24.3241V13.6279ZM24.0683 13.8837H24.3241V14.1395H24.0683V13.8837ZM24.5799 13.3721H24.8357V13.6279H24.5799V13.3721ZM24.8357 13.1163H25.0915V13.3721H24.8357V13.1163ZM25.3473 12.6047H25.6032V12.8605H25.3473V12.6047ZM25.3473 12.8605H25.6032V13.1163H25.3473V12.8605ZM25.859 12.6047H26.1148V12.8605H25.859V12.6047ZM25.859 12.8605H26.1148V13.1163H25.859V12.8605ZM25.6032 12.8605H25.859V13.1163H25.6032V12.8605ZM25.6032 12.6047H25.859V12.8605H25.6032V12.6047ZM26.1148 12.6047H26.3706V12.8605H26.1148V12.6047ZM26.3706 12.8605H26.6264V13.1163H26.3706V12.8605ZM26.1148 12.8605H26.3706V13.1163H26.1148V12.8605ZM26.8822 12.8605H27.138V13.1163H26.8822V12.8605ZM26.6264 12.8605H26.8822V13.1163H26.6264V12.8605ZM27.3938 13.1163H27.6497V13.3721H27.3938V13.1163ZM27.3938 13.3721H27.6497V13.6279H27.3938V13.3721ZM27.3938 13.6279H27.6497V13.8837H27.3938V13.6279ZM27.138 13.3721H27.3938V13.6279H27.138V13.3721ZM27.138 13.1163H27.3938V13.3721H27.138V13.1163ZM27.138 12.8605H27.3938V13.1163H27.138V12.8605ZM28.9287 12.8605H29.1845V13.1163H28.9287V12.8605ZM29.1845 12.6047H29.4404V12.8605H29.1845V12.6047ZM29.4404 12.6047H29.6962V12.8605H29.4404V12.6047ZM29.4404 12.8605H29.6962V13.1163H29.4404V12.8605ZM29.1845 12.8605H29.4404V13.1163H29.1845V12.8605ZM29.952 13.1163H30.2078V13.3721H29.952V13.1163ZM27.6497 13.3721H27.9055V13.6279H27.6497V13.3721ZM27.6497 13.6279H27.9055V13.8837H27.6497V13.6279ZM27.9055 13.6279H28.1613V13.8837H27.9055V13.6279ZM28.1613 13.6279H28.4171V13.8837H28.1613V13.6279ZM28.4171 13.6279H28.6729V13.8837H28.4171V13.6279ZM28.4171 13.8837H28.6729V14.1395H28.4171V13.8837ZM28.1613 13.8837H28.4171V14.1395H28.1613V13.8837ZM27.9055 13.8837H28.1613V14.1395H27.9055V13.8837ZM26.6264 14.1395H26.8822V14.3953H26.6264V14.1395ZM26.6264 14.3953H26.8822V14.6512H26.6264V14.3953ZM27.9055 14.1395H28.1613V14.3953H27.9055V14.1395ZM28.1613 14.1395H28.4171V14.3953H28.1613V14.1395ZM28.4171 14.1395H28.6729V14.3953H28.4171V14.1395ZM28.4171 14.3953H28.6729V14.6512H28.4171V14.3953ZM28.1613 14.6512H28.4171V14.907H28.1613V14.6512ZM27.9055 14.6512H28.1613V14.907H27.9055V14.6512ZM28.1613 14.3953H28.4171V14.6512H28.1613V14.3953ZM27.9055 14.3953H28.1613V14.6512H27.9055V14.3953ZM27.6497 14.907H27.9055V15.1628H27.6497V14.907ZM27.6497 14.6512H27.9055V14.907H27.6497V14.6512ZM27.9055 14.907H28.1613V15.1628H27.9055V14.907ZM28.1613 14.907H28.4171V15.1628H28.1613V14.907ZM26.3706 14.1395H26.6264V14.3953H26.3706V14.1395ZM26.3706 14.3953H26.6264V14.6512H26.3706V14.3953ZM26.3706 14.6512H26.6264V14.907H26.3706V14.6512ZM26.3706 14.907H26.6264V15.1628H26.3706V14.907ZM26.6264 16.186H26.8822V16.4419H26.6264V16.186ZM26.8822 16.186H27.138V16.4419H26.8822V16.186ZM27.6497 15.1628H27.9055V15.4186H27.6497V15.1628ZM27.6497 15.4186H27.9055V15.6744H27.6497V15.4186ZM27.6497 15.6744H27.9055V15.9302H27.6497V15.6744ZM27.6497 15.9302H27.9055V16.186H27.6497V15.9302ZM27.9055 15.1628H28.1613V15.4186H27.9055V15.1628ZM27.9055 15.4186H28.1613V15.6744H27.9055V15.4186ZM27.9055 15.6744H28.1613V15.9302H27.9055V15.6744ZM27.9055 15.9302H28.1613V16.186H27.9055V15.9302ZM27.6497 16.4419H27.9055V16.6977H27.6497V16.4419ZM27.9055 16.4419H28.1613V16.6977H27.9055V16.4419ZM28.1613 16.186H28.4171V16.4419H28.1613V16.186ZM28.1613 15.9302H28.4171V16.186H28.1613V15.9302ZM28.1613 15.6744H28.4171V15.9302H28.1613V15.6744ZM28.1613 15.4186H28.4171V15.6744H28.1613V15.4186ZM28.1613 15.1628H28.4171V15.4186H28.1613V15.1628ZM28.1613 16.4419H28.4171V16.6977H28.1613V16.4419ZM28.4171 16.6977H28.6729V16.9535H28.4171V16.6977ZM28.4171 16.9535H28.6729V17.2093H28.4171V16.9535ZM28.1613 16.9535H28.4171V17.2093H28.1613V16.9535ZM27.9055 16.9535H28.1613V17.2093H27.9055V16.9535ZM27.6497 16.9535H27.9055V17.2093H27.6497V16.9535ZM27.6497 16.6977H27.9055V16.9535H27.6497V16.6977ZM27.9055 16.6977H28.1613V16.9535H27.9055V16.6977ZM28.1613 16.6977H28.4171V16.9535H28.1613V16.6977ZM25.0915 17.4651H25.3473V17.7209H25.0915V17.4651ZM24.8357 17.7209H25.0915V17.9767H24.8357V17.7209ZM24.5799 17.9767H24.8357V18.2326H24.5799V17.9767ZM27.6497 17.2093H27.9055V17.4651H27.6497V17.2093ZM27.9055 17.2093H28.1613V17.4651H27.9055V17.2093ZM28.1613 17.2093H28.4171V17.4651H28.1613V17.2093ZM28.4171 17.2093H28.6729V17.4651H28.4171V17.2093ZM24.8357 17.9767H25.0915V18.2326H24.8357V17.9767ZM25.0915 17.9767H25.3473V18.2326H25.0915V17.9767ZM25.0915 18.2326H25.3473V18.4884H25.0915V18.2326ZM24.8357 18.2326H25.0915V18.4884H24.8357V18.2326ZM25.3473 18.2326H25.6032V18.4884H25.3473V18.2326ZM26.6264 17.9767H26.8822V18.2326H26.6264V17.9767ZM26.6264 18.2326H26.8822V18.4884H26.6264V18.2326ZM26.3706 18.2326H26.6264V18.4884H26.3706V18.2326ZM26.8822 17.7209H27.138V17.9767H26.8822V17.7209ZM27.6497 17.4651H27.9055V17.7209H27.6497V17.4651ZM27.9055 17.4651H28.1613V17.7209H27.9055V17.4651ZM28.1613 17.4651H28.4171V17.7209H28.1613V17.4651ZM28.4171 17.4651H28.6729V17.7209H28.4171V17.4651ZM28.4171 17.7209H28.6729V17.9767H28.4171V17.7209ZM28.1613 17.7209H28.4171V17.9767H28.1613V17.7209ZM27.9055 17.7209H28.1613V17.9767H27.9055V17.7209ZM27.6497 17.7209H27.9055V17.9767H27.6497V17.7209ZM27.6497 17.9767H27.9055V18.2326H27.6497V17.9767ZM27.6497 18.2326H27.9055V18.4884H27.6497V18.2326ZM27.9055 18.2326H28.1613V18.4884H27.9055V18.2326ZM28.1613 18.2326H28.4171V18.4884H28.1613V18.2326ZM28.1613 17.9767H28.4171V18.2326H28.1613V17.9767ZM28.4171 17.9767H28.6729V18.2326H28.4171V17.9767ZM27.9055 17.9767H28.1613V18.2326H27.9055V17.9767ZM28.4171 18.2326H28.6729V18.4884H28.4171V18.2326ZM28.1613 18.4884H28.4171V18.7442H28.1613V18.4884ZM28.1613 18.7442H28.4171V19H28.1613V18.7442ZM28.4171 18.7442H28.6729V19H28.4171V18.7442ZM28.4171 18.4884H28.6729V18.7442H28.4171V18.4884ZM28.9287 18.4884H29.1845V18.7442H28.9287V18.4884ZM28.9287 18.7442H29.1845V19H28.9287V18.7442ZM28.6729 18.7442H28.9287V19H28.6729V18.7442ZM29.4404 17.9767H29.6962V18.2326H29.4404V17.9767ZM29.4404 18.2326H29.6962V18.4884H29.4404V18.2326ZM29.1845 18.2326H29.4404V18.4884H29.1845V18.2326ZM29.1845 18.4884H29.4404V18.7442H29.1845V18.4884ZM27.9055 18.4884H28.1613V18.7442H27.9055V18.4884ZM26.1148 18.4884H26.3706V18.7442H26.1148V18.4884ZM25.859 18.4884H26.1148V18.7442H25.859V18.4884ZM25.859 18.7442H26.1148V19H25.859V18.7442ZM26.1148 18.7442H26.3706V19H26.1148V18.7442ZM25.6032 18.4884H25.859V18.7442H25.6032V18.4884ZM25.3473 18.7442H25.6032V19H25.3473V18.7442ZM25.6032 18.7442H25.859V19H25.6032V18.7442ZM25.3473 18.4884H25.6032V18.7442H25.3473V18.4884ZM26.3706 18.4884H26.6264V18.7442H26.3706V18.4884ZM26.8822 17.9767H27.138V18.2326H26.8822V17.9767ZM29.6962 12.8605H29.952V13.1163H29.6962V12.8605ZM24.3241 18.2326H24.5799V18.4884H24.3241V18.2326ZM25.0915 17.7209H25.3473V17.9767H25.0915V17.7209ZM28.6729 18.4884H28.9287V18.7442H28.6729V18.4884ZM24.0683 18.4884H24.3241V18.7442H24.0683V18.4884ZM26.3706 15.9302H26.6264V16.186H26.3706V15.9302ZM26.3706 15.4186H26.6264V15.6744H26.3706V15.4186ZM26.3706 15.6744H26.6264V15.9302H26.3706V15.6744ZM26.3706 15.1628H26.6264V15.4186H26.3706V15.1628ZM26.6264 14.6512H26.8822V14.907H26.6264V14.6512ZM26.6264 14.907H26.8822V15.1628H26.6264V14.907ZM25.6032 16.9535H25.859V17.2093H25.6032V16.9535ZM26.8822 13.1163H27.138V13.3721H26.8822V13.1163ZM28.4171 16.4419H28.6729V16.6977H28.4171V16.4419ZM25.0915 18.4884H25.3473V18.7442H25.0915V18.4884ZM25.859 13.8837H26.1148V14.1395H25.859V13.8837ZM26.1148 13.8837H26.3706V14.1395H26.1148V13.8837ZM26.3706 13.8837H26.6264V14.1395H26.3706V13.8837ZM26.3706 12.6047H26.6264V12.8605H26.3706V12.6047ZM26.1148 16.4419H26.3706V16.6977H26.1148V16.4419ZM29.6962 17.7209H29.952V17.9767H29.6962V17.7209ZM25.3473 17.2093H25.6032V17.4651H25.3473V17.2093ZM25.859 16.6977H26.1148V16.9535H25.859V16.6977ZM25.859 16.9535H26.1148V17.2093H25.859V16.9535ZM25.6032 17.2093H25.859V17.4651H25.6032V17.2093ZM25.3473 17.4651H25.6032V17.7209H25.3473V17.4651ZM25.3473 17.7209H25.6032V17.9767H25.3473V17.7209ZM26.3706 16.186H26.6264V16.4419H26.3706V16.186ZM27.138 16.186H27.3938V16.4419H27.138V16.186ZM26.3706 16.4419H26.6264V16.6977H26.3706V16.4419ZM26.6264 16.4419H26.8822V16.6977H26.6264V16.4419ZM26.8822 16.4419H27.138V16.6977H26.8822V16.4419ZM26.6264 15.1628H26.8822V15.4186H26.6264V15.1628ZM29.6962 17.9767H29.952V18.2326H29.6962V17.9767ZM28.6729 18.2326H28.9287V18.4884H28.6729V18.2326ZM28.6729 13.1163H28.9287V13.3721H28.6729V13.1163ZM30.2078 13.3721H30.4636V13.6279H30.2078V13.3721ZM26.6264 15.4186H26.8822V15.6744H26.6264V15.4186ZM26.6264 15.6744H26.8822V15.9302H26.6264V15.6744ZM26.6264 15.9302H26.8822V16.186H26.6264V15.9302ZM27.9055 16.186H28.1613V16.4419H27.9055V16.186ZM27.6497 16.186H27.9055V16.4419H27.6497V16.186ZM28.9287 18.2326H29.1845V18.4884H28.9287V18.2326ZM25.6032 18.2326H25.859V18.4884H25.6032V18.2326ZM25.859 18.2326H26.1148V18.4884H25.859V18.2326ZM26.1148 18.2326H26.3706V18.4884H26.1148V18.2326ZM23.8125 18.7442H24.0683V19H23.8125V18.7442ZM26.6264 12.6047H26.8822V12.8605H26.6264V12.6047ZM24.3241 17.9767H24.5799V18.2326H24.3241V17.9767ZM24.0683 18.2326H24.3241V18.4884H24.0683V18.2326ZM23.8125 18.4884H24.0683V18.7442H23.8125V18.4884ZM24.5799 18.2326H24.8357V18.4884H24.5799V18.2326ZM27.3938 16.186H27.6497V16.4419H27.3938V16.186ZM27.138 16.4419H27.3938V16.6977H27.138V16.4419ZM27.6497 13.8837H27.9055V14.1395H27.6497V13.8837ZM28.1613 13.3721H28.4171V13.6279H28.1613V13.3721ZM28.4171 13.3721H28.6729V13.6279H28.4171V13.3721ZM27.9055 13.3721H28.1613V13.6279H27.9055V13.3721ZM27.6497 13.1163H27.9055V13.3721H27.6497V13.1163ZM26.6264 13.1163H26.8822V13.3721H26.6264V13.1163ZM27.6497 14.1395H27.9055V14.3953H27.6497V14.1395ZM24.5799 17.7209H24.8357V17.9767H24.5799V17.7209ZM25.3473 17.9767H25.6032V18.2326H25.3473V17.9767ZM25.6032 17.9767H25.859V18.2326H25.6032V17.9767ZM26.1148 13.6279H26.3706V13.8837H26.1148V13.6279ZM26.8822 13.3721H27.138V13.6279H26.8822V13.3721ZM27.138 13.6279H27.3938V13.8837H27.138V13.6279ZM27.3938 13.8837H27.6497V14.1395H27.3938V13.8837ZM27.6497 14.3953H27.9055V14.6512H27.6497V14.3953ZM26.8822 14.3953H27.138V14.6512H26.8822V14.3953ZM26.8822 14.6512H27.138V14.907H26.8822V14.6512ZM26.8822 14.907H27.138V15.1628H26.8822V14.907ZM26.8822 15.1628H27.138V15.4186H26.8822V15.1628ZM26.8822 15.4186H27.138V15.6744H26.8822V15.4186ZM26.8822 15.6744H27.138V15.9302H26.8822V15.6744ZM26.8822 15.9302H27.138V16.186H26.8822V15.9302ZM25.6032 14.1395H25.859V14.3953H25.6032V14.1395ZM25.3473 14.3953H25.6032V14.6512H25.3473V14.3953ZM25.0915 14.6512H25.3473V14.907H25.0915V14.6512ZM25.859 14.1395H26.1148V14.3953H25.859V14.1395ZM25.6032 14.3953H25.859V14.6512H25.6032V14.3953ZM25.3473 14.6512H25.6032V14.907H25.3473V14.6512ZM25.0915 14.907H25.3473V15.1628H25.0915V14.907ZM26.1148 14.1395H26.3706V14.3953H26.1148V14.1395ZM26.1148 14.3953H26.3706V14.6512H26.1148V14.3953ZM28.9287 13.1163H29.1845V13.3721H28.9287V13.1163ZM28.6729 13.3721H28.9287V13.6279H28.6729V13.3721ZM29.6962 13.1163H29.952V13.3721H29.6962V13.1163ZM29.4404 13.1163H29.6962V13.3721H29.4404V13.1163ZM29.6962 13.3721H29.952V13.6279H29.6962V13.3721ZM29.952 13.3721H30.2078V13.6279H29.952V13.3721ZM29.1845 13.1163H29.4404V13.3721H29.1845V13.1163ZM29.4404 13.3721H29.6962V13.6279H29.4404V13.3721ZM29.6962 13.6279H29.952V13.8837H29.6962V13.6279ZM29.952 13.6279H30.2078V13.8837H29.952V13.6279ZM29.1845 13.3721H29.4404V13.6279H29.1845V13.3721ZM29.4404 13.6279H29.6962V13.8837H29.4404V13.6279ZM29.6962 13.8837H29.952V14.1395H29.6962V13.8837ZM24.0683 14.1395H24.3241V14.3953H24.0683V14.1395ZM24.3241 13.8837H24.5799V14.1395H24.3241V13.8837ZM24.5799 13.6279H24.8357V13.8837H24.5799V13.6279ZM24.8357 13.3721H25.0915V13.6279H24.8357V13.3721ZM25.0915 13.1163H25.3473V13.3721H25.0915V13.1163ZM25.0915 12.8605H25.3473V13.1163H25.0915V12.8605ZM26.8822 12.6047H27.138V12.8605H26.8822V12.6047ZM27.3938 12.8605H27.6497V13.1163H27.3938V12.8605ZM27.9055 13.1163H28.1613V13.3721H27.9055V13.1163ZM27.6497 12.8605H27.9055V13.1163H27.6497V12.8605ZM27.3938 12.6047H27.6497V12.8605H27.3938V12.6047ZM27.138 12.6047H27.3938V12.8605H27.138V12.6047ZM25.859 14.3953H26.1148V14.6512H25.859V14.3953ZM26.1148 14.6512H26.3706V14.907H26.1148V14.6512ZM25.859 14.6512H26.1148V14.907H25.859V14.6512ZM26.1148 14.907H26.3706V15.1628H26.1148V14.907ZM26.3706 16.6977H26.6264V16.9535H26.3706V16.6977ZM26.1148 16.6977H26.3706V16.9535H26.1148V16.6977ZM26.1148 16.9535H26.3706V17.2093H26.1148V16.9535ZM25.859 17.2093H26.1148V17.4651H25.859V17.2093ZM25.6032 17.4651H25.859V17.7209H25.6032V17.4651ZM28.4171 16.186H28.6729V16.4419H28.4171V16.186ZM28.4171 15.9302H28.6729V16.186H28.4171V15.9302ZM28.4171 15.6744H28.6729V15.9302H28.4171V15.6744ZM28.4171 15.4186H28.6729V15.6744H28.4171V15.4186ZM28.4171 15.1628H28.6729V15.4186H28.4171V15.1628ZM28.4171 14.907H28.6729V15.1628H28.4171V14.907ZM28.4171 14.6512H28.6729V14.907H28.4171V14.6512ZM31.2333 12.6047H31.4891V12.8605H31.2333V12.6047ZM31.2333 12.8605H31.4891V13.1163H31.2333V12.8605ZM31.4891 12.8605H31.7449V13.1163H31.4891V12.8605ZM31.4891 13.1163H31.7449V13.3721H31.4891V13.1163ZM31.7449 13.1163H32.0007V13.3721H31.7449V13.1163ZM31.7449 13.3721H32.0007V13.6279H31.7449V13.3721ZM32.0007 13.3721H32.2566V13.6279H32.0007V13.3721ZM32.0007 13.1163H32.2566V13.3721H32.0007V13.1163ZM32.2566 13.1163H32.5124V13.3721H32.2566V13.1163ZM32.2566 13.3721H32.5124V13.6279H32.2566V13.3721ZM32.5124 12.8605H32.7682V13.1163H32.5124V12.8605ZM32.7682 13.1163H33.024V13.3721H32.7682V13.1163ZM33.024 13.1163H33.2798V13.3721H33.024V13.1163ZM32.5124 13.1163H32.7682V13.3721H32.5124V13.1163ZM32.5124 13.3721H32.7682V13.6279H32.5124V13.3721ZM32.7682 13.3721H33.024V13.6279H32.7682V13.3721ZM33.024 13.3721H33.2798V13.6279H33.024V13.3721ZM33.2798 13.3721H33.5356V13.6279H33.2798V13.3721ZM33.5356 13.3721H33.7914V13.6279H33.5356V13.3721ZM33.7914 13.3721H34.0473V13.6279H33.7914V13.3721ZM34.0473 13.3721H34.3031V13.6279H34.0473V13.3721ZM34.3031 13.3721H34.5589V13.6279H34.3031V13.3721ZM34.5589 13.3721H34.8147V13.6279H34.5589V13.3721ZM34.8147 13.3721H35.0705V13.6279H34.8147V13.3721ZM35.0705 13.3721H35.3263V13.6279H35.0705V13.3721ZM35.3263 13.3721H35.5821V13.6279H35.3263V13.3721ZM35.5821 13.3721H35.838V13.6279H35.5821V13.3721ZM35.5821 13.1163H35.838V13.3721H35.5821V13.1163ZM35.3263 13.1163H35.5821V13.3721H35.3263V13.1163ZM35.0705 13.1163H35.3263V13.3721H35.0705V13.1163ZM34.8147 13.1163H35.0705V13.3721H34.8147V13.1163ZM34.3031 13.1163H34.5589V13.3721H34.3031V13.1163ZM34.0473 13.1163H34.3031V13.3721H34.0473V13.1163ZM33.7914 13.1163H34.0473V13.3721H33.7914V13.1163ZM33.5356 13.1163H33.7914V13.3721H33.5356V13.1163ZM33.2798 13.1163H33.5356V13.3721H33.2798V13.1163ZM34.5589 13.1163H34.8147V13.3721H34.5589V13.1163ZM34.3031 12.8605H34.5589V13.1163H34.3031V12.8605ZM34.3031 12.6047H34.5589V12.8605H34.3031V12.6047ZM34.0473 12.6047H34.3031V12.8605H34.0473V12.6047ZM34.0473 12.8605H34.3031V13.1163H34.0473V12.8605ZM34.5589 12.6047H34.8147V12.8605H34.5589V12.6047ZM34.8147 12.6047H35.0705V12.8605H34.8147V12.6047ZM34.8147 12.8605H35.0705V13.1163H34.8147V12.8605ZM34.5589 12.8605H34.8147V13.1163H34.5589V12.8605ZM35.838 13.1163H36.0938V13.3721H35.838V13.1163ZM35.838 13.3721H36.0938V13.6279H35.838V13.3721ZM36.0938 13.3721H36.3496V13.6279H36.0938V13.3721ZM36.0938 13.1163H36.3496V13.3721H36.0938V13.1163ZM36.0938 12.8605H36.3496V13.1163H36.0938V12.8605ZM36.0938 12.6047H36.3496V12.8605H36.0938V12.6047ZM36.3496 12.6047H36.6054V12.8605H36.3496V12.6047ZM36.3496 12.8605H36.6054V13.1163H36.3496V12.8605ZM36.3496 13.1163H36.6054V13.3721H36.3496V13.1163ZM36.3496 13.3721H36.6054V13.6279H36.3496V13.3721ZM36.6054 13.3721H36.8612V13.6279H36.6054V13.3721ZM36.8612 13.3721H37.117V13.6279H36.8612V13.3721ZM36.8612 13.1163H37.117V13.3721H36.8612V13.1163ZM36.8612 12.8605H37.117V13.1163H36.8612V12.8605ZM36.8612 12.6047H37.117V12.8605H36.8612V12.6047ZM36.6054 12.6047H36.8612V12.8605H36.6054V12.6047ZM36.6054 12.8605H36.8612V13.1163H36.6054V12.8605ZM36.6054 13.1163H36.8612V13.3721H36.6054V13.1163ZM37.117 13.1163H37.3728V13.3721H37.117V13.1163ZM37.3728 13.1163H37.6287V13.3721H37.3728V13.1163ZM37.3728 13.3721H37.6287V13.6279H37.3728V13.3721ZM37.117 13.3721H37.3728V13.6279H37.117V13.3721ZM37.6287 13.1163H37.8845V13.3721H37.6287V13.1163ZM37.8845 13.1163H38.1403V13.3721H37.8845V13.1163ZM37.8845 13.3721H38.1403V13.6279H37.8845V13.3721ZM37.6287 13.3721H37.8845V13.6279H37.6287V13.3721ZM32.5124 13.6279H32.7682V13.8837H32.5124V13.6279ZM32.5124 13.8837H32.7682V14.1395H32.5124V13.8837ZM32.5124 14.1395H32.7682V14.3953H32.5124V14.1395ZM32.5124 14.3953H32.7682V14.6512H32.5124V14.3953ZM32.5124 14.6512H32.7682V14.907H32.5124V14.6512ZM32.7682 14.6512H33.024V14.907H32.7682V14.6512ZM32.7682 14.3953H33.024V14.6512H32.7682V14.3953ZM32.7682 14.1395H33.024V14.3953H32.7682V14.1395ZM32.7682 13.8837H33.024V14.1395H32.7682V13.8837ZM32.7682 13.6279H33.024V13.8837H32.7682V13.6279ZM33.024 13.6279H33.2798V13.8837H33.024V13.6279ZM33.2798 13.6279H33.5356V13.8837H33.2798V13.6279ZM33.2798 13.8837H33.5356V14.1395H33.2798V13.8837ZM33.2798 14.1395H33.5356V14.3953H33.2798V14.1395ZM33.2798 14.3953H33.5356V14.6512H33.2798V14.3953ZM33.2798 14.6512H33.5356V14.907H33.2798V14.6512ZM33.2798 14.907H33.5356V15.1628H33.2798V14.907ZM33.024 14.907H33.2798V15.1628H33.024V14.907ZM33.024 14.6512H33.2798V14.907H33.024V14.6512ZM33.024 14.3953H33.2798V14.6512H33.024V14.3953ZM33.024 14.1395H33.2798V14.3953H33.024V14.1395ZM33.024 13.8837H33.2798V14.1395H33.024V13.8837ZM32.5124 14.907H32.7682V15.1628H32.5124V14.907ZM32.5124 15.1628H32.7682V15.4186H32.5124V15.1628ZM32.5124 15.4186H32.7682V15.6744H32.5124V15.4186ZM32.7682 15.4186H33.024V15.6744H32.7682V15.4186ZM33.024 15.4186H33.2798V15.6744H33.024V15.4186ZM33.024 15.1628H33.2798V15.4186H33.024V15.1628ZM33.2798 15.1628H33.5356V15.4186H33.2798V15.1628ZM32.7682 14.907H33.024V15.1628H32.7682V14.907ZM32.7682 15.1628H33.024V15.4186H32.7682V15.1628ZM33.2798 15.4186H33.5356V15.6744H33.2798V15.4186ZM32.2566 14.6512H32.5124V14.907H32.2566V14.6512ZM32.0007 14.6512H32.2566V14.907H32.0007V14.6512ZM32.0007 14.907H32.2566V15.1628H32.0007V14.907ZM32.2566 14.907H32.5124V15.1628H32.2566V14.907ZM31.7449 14.6512H32.0007V14.907H31.7449V14.6512ZM31.4891 14.6512H31.7449V14.907H31.4891V14.6512ZM31.4891 14.907H31.7449V15.1628H31.4891V14.907ZM31.7449 14.907H32.0007V15.1628H31.7449V14.907ZM32.2566 15.6744H32.5124V15.9302H32.2566V15.6744ZM32.0007 15.6744H32.2566V15.9302H32.0007V15.6744ZM31.7449 15.6744H32.0007V15.9302H31.7449V15.6744ZM31.4891 15.6744H31.7449V15.9302H31.4891V15.6744ZM31.4891 15.9302H31.7449V16.186H31.4891V15.9302ZM31.7449 15.9302H32.0007V16.186H31.7449V15.9302ZM32.0007 15.9302H32.2566V16.186H32.0007V15.9302ZM32.2566 15.9302H32.5124V16.186H32.2566V15.9302ZM32.5124 15.9302H32.7682V16.186H32.5124V15.9302ZM32.5124 15.6744H32.7682V15.9302H32.5124V15.6744ZM32.7682 15.6744H33.024V15.9302H32.7682V15.6744ZM33.024 15.6744H33.2798V15.9302H33.024V15.6744ZM33.2798 15.6744H33.5356V15.9302H33.2798V15.6744ZM33.2798 15.9302H33.5356V16.186H33.2798V15.9302ZM33.024 15.9302H33.2798V16.186H33.024V15.9302ZM32.7682 15.9302H33.024V16.186H32.7682V15.9302ZM32.5124 16.186H32.7682V16.4419H32.5124V16.186ZM32.7682 16.186H33.024V16.4419H32.7682V16.186ZM33.024 16.186H33.2798V16.4419H33.024V16.186ZM33.2798 16.186H33.5356V16.4419H33.2798V16.186ZM33.2798 16.4419H33.5356V16.6977H33.2798V16.4419ZM33.024 16.4419H33.2798V16.6977H33.024V16.4419ZM32.7682 16.4419H33.024V16.6977H32.7682V16.4419ZM32.5124 16.4419H32.7682V16.6977H32.5124V16.4419ZM32.5124 16.6977H32.7682V16.9535H32.5124V16.6977ZM32.7682 16.6977H33.024V16.9535H32.7682V16.6977ZM32.7682 16.9535H33.024V17.2093H32.7682V16.9535ZM32.5124 16.9535H32.7682V17.2093H32.5124V16.9535ZM34.8147 13.6279H35.0705V13.8837H34.8147V13.6279ZM34.5589 13.6279H34.8147V13.8837H34.5589V13.6279ZM34.5589 13.8837H34.8147V14.1395H34.5589V13.8837ZM34.8147 13.8837H35.0705V14.1395H34.8147V13.8837ZM35.0705 13.6279H35.3263V13.8837H35.0705V13.6279ZM35.3263 13.6279H35.5821V13.8837H35.3263V13.6279ZM35.3263 13.8837H35.5821V14.1395H35.3263V13.8837ZM35.0705 13.8837H35.3263V14.1395H35.0705V13.8837ZM34.5589 14.1395H34.8147V14.3953H34.5589V14.1395ZM34.5589 14.3953H34.8147V14.6512H34.5589V14.3953ZM34.5589 14.6512H34.8147V14.907H34.5589V14.6512ZM34.5589 14.907H34.8147V15.1628H34.5589V14.907ZM34.5589 15.1628H34.8147V15.4186H34.5589V15.1628ZM34.5589 15.4186H34.8147V15.6744H34.5589V15.4186ZM34.5589 15.6744H34.8147V15.9302H34.5589V15.6744ZM34.5589 15.9302H34.8147V16.186H34.5589V15.9302ZM34.5589 16.186H34.8147V16.4419H34.5589V16.186ZM34.5589 16.4419H34.8147V16.6977H34.5589V16.4419ZM34.5589 16.6977H34.8147V16.9535H34.5589V16.6977ZM34.5589 16.9535H34.8147V17.2093H34.5589V16.9535ZM34.5589 17.2093H34.8147V17.4651H34.5589V17.2093ZM34.5589 17.4651H34.8147V17.7209H34.5589V17.4651ZM34.5589 17.7209H34.8147V17.9767H34.5589V17.7209ZM34.5589 17.9767H34.8147V18.2326H34.5589V17.9767ZM34.5589 18.2326H34.8147V18.4884H34.5589V18.2326ZM34.5589 18.4884H34.8147V18.7442H34.5589V18.4884ZM34.5589 18.7442H34.8147V19H34.5589V18.7442ZM34.8147 18.7442H35.0705V19H34.8147V18.7442ZM35.0705 18.7442H35.3263V19H35.0705V18.7442ZM35.3263 18.7442H35.5821V19H35.3263V18.7442ZM35.3263 18.4884H35.5821V18.7442H35.3263V18.4884ZM35.3263 18.2326H35.5821V18.4884H35.3263V18.2326ZM35.3263 17.9767H35.5821V18.2326H35.3263V17.9767ZM35.3263 17.4651H35.5821V17.7209H35.3263V17.4651ZM35.3263 17.2093H35.5821V17.4651H35.3263V17.2093ZM35.3263 16.9535H35.5821V17.2093H35.3263V16.9535ZM35.3263 16.6977H35.5821V16.9535H35.3263V16.6977ZM35.3263 16.4419H35.5821V16.6977H35.3263V16.4419ZM35.3263 16.186H35.5821V16.4419H35.3263V16.186ZM35.3263 17.7209H35.5821V17.9767H35.3263V17.7209ZM35.0705 16.6977H35.3263V16.9535H35.0705V16.6977ZM35.0705 16.4419H35.3263V16.6977H35.0705V16.4419ZM35.3263 15.9302H35.5821V16.186H35.3263V15.9302ZM35.3263 15.6744H35.5821V15.9302H35.3263V15.6744ZM35.3263 15.4186H35.5821V15.6744H35.3263V15.4186ZM35.0705 15.4186H35.3263V15.6744H35.0705V15.4186ZM35.0705 15.1628H35.3263V15.4186H35.0705V15.1628ZM35.0705 14.907H35.3263V15.1628H35.0705V14.907ZM35.3263 14.6512H35.5821V14.907H35.3263V14.6512ZM35.3263 14.3953H35.5821V14.6512H35.3263V14.3953ZM35.3263 14.1395H35.5821V14.3953H35.3263V14.1395ZM35.3263 14.907H35.5821V15.1628H35.3263V14.907ZM35.3263 15.1628H35.5821V15.4186H35.3263V15.1628ZM35.0705 14.3953H35.3263V14.6512H35.0705V14.3953ZM35.0705 14.6512H35.3263V14.907H35.0705V14.6512ZM34.8147 14.907H35.0705V15.1628H34.8147V14.907ZM34.8147 15.4186H35.0705V15.6744H34.8147V15.4186ZM34.8147 15.6744H35.0705V15.9302H34.8147V15.6744ZM35.0705 15.6744H35.3263V15.9302H35.0705V15.6744ZM35.0705 15.9302H35.3263V16.186H35.0705V15.9302ZM35.0705 14.1395H35.3263V14.3953H35.0705V14.1395ZM34.8147 14.3953H35.0705V14.6512H34.8147V14.3953ZM34.8147 14.6512H35.0705V14.907H34.8147V14.6512ZM34.8147 15.1628H35.0705V15.4186H34.8147V15.1628ZM34.8147 14.1395H35.0705V14.3953H34.8147V14.1395ZM34.8147 15.9302H35.0705V16.186H34.8147V15.9302ZM34.8147 16.186H35.0705V16.4419H34.8147V16.186ZM34.8147 16.4419H35.0705V16.6977H34.8147V16.4419ZM34.8147 16.6977H35.0705V16.9535H34.8147V16.6977ZM34.8147 16.9535H35.0705V17.2093H34.8147V16.9535ZM34.8147 17.2093H35.0705V17.4651H34.8147V17.2093ZM34.8147 17.4651H35.0705V17.7209H34.8147V17.4651ZM34.8147 17.7209H35.0705V17.9767H34.8147V17.7209ZM34.8147 17.9767H35.0705V18.2326H34.8147V17.9767ZM35.0705 17.2093H35.3263V17.4651H35.0705V17.2093ZM35.0705 16.9535H35.3263V17.2093H35.0705V16.9535ZM35.0705 16.186H35.3263V16.4419H35.0705V16.186ZM35.0705 17.4651H35.3263V17.7209H35.0705V17.4651ZM35.0705 17.7209H35.3263V17.9767H35.0705V17.7209ZM35.0705 17.9767H35.3263V18.2326H35.0705V17.9767ZM35.0705 18.2326H35.3263V18.4884H35.0705V18.2326ZM35.0705 18.4884H35.3263V18.7442H35.0705V18.4884ZM34.8147 18.4884H35.0705V18.7442H34.8147V18.4884ZM34.8147 18.2326H35.0705V18.4884H34.8147V18.2326ZM34.3031 18.2326H34.5589V18.4884H34.3031V18.2326ZM34.0473 18.2326H34.3031V18.4884H34.0473V18.2326ZM34.0473 17.9767H34.3031V18.2326H34.0473V17.9767ZM34.3031 17.9767H34.5589V18.2326H34.3031V17.9767ZM35.5821 17.9767H35.838V18.2326H35.5821V17.9767ZM35.838 17.9767H36.0938V18.2326H35.838V17.9767ZM35.838 18.2326H36.0938V18.4884H35.838V18.2326ZM35.5821 18.2326H35.838V18.4884H35.5821V18.2326ZM34.3031 15.4186H34.5589V15.6744H34.3031V15.4186ZM34.3031 15.1628H34.5589V15.4186H34.3031V15.1628ZM34.0473 15.1628H34.3031V15.4186H34.0473V15.1628ZM34.0473 15.4186H34.3031V15.6744H34.0473V15.4186ZM35.5821 15.1628H35.838V15.4186H35.5821V15.1628ZM35.5821 15.4186H35.838V15.6744H35.5821V15.4186ZM35.838 15.4186H36.0938V15.6744H35.838V15.4186ZM35.838 15.1628H36.0938V15.4186H35.838V15.1628ZM36.8612 13.6279H37.117V13.8837H36.8612V13.6279ZM36.6054 13.6279H36.8612V13.8837H36.6054V13.6279ZM36.6054 13.8837H36.8612V14.1395H36.6054V13.8837ZM36.8612 13.8837H37.117V14.1395H36.8612V13.8837ZM37.117 13.8837H37.3728V14.1395H37.117V13.8837ZM37.117 13.6279H37.3728V13.8837H37.117V13.6279ZM37.3728 13.6279H37.6287V13.8837H37.3728V13.6279ZM37.3728 13.8837H37.6287V14.1395H37.3728V13.8837ZM36.6054 14.1395H36.8612V14.3953H36.6054V14.1395ZM36.6054 14.3953H36.8612V14.6512H36.6054V14.3953ZM36.6054 14.6512H36.8612V14.907H36.6054V14.6512ZM36.6054 15.1628H36.8612V15.4186H36.6054V15.1628ZM36.6054 15.4186H36.8612V15.6744H36.6054V15.4186ZM36.6054 14.907H36.8612V15.1628H36.6054V14.907ZM36.6054 15.6744H36.8612V15.9302H36.6054V15.6744ZM36.6054 15.9302H36.8612V16.186H36.6054V15.9302ZM36.6054 16.186H36.8612V16.4419H36.6054V16.186ZM36.6054 16.4419H36.8612V16.6977H36.6054V16.4419ZM36.6054 16.6977H36.8612V16.9535H36.6054V16.6977ZM36.6054 16.9535H36.8612V17.2093H36.6054V16.9535ZM36.6054 17.2093H36.8612V17.4651H36.6054V17.2093ZM36.6054 17.4651H36.8612V17.7209H36.6054V17.4651ZM36.6054 17.7209H36.8612V17.9767H36.6054V17.7209ZM36.6054 17.9767H36.8612V18.2326H36.6054V17.9767ZM36.6054 18.2326H36.8612V18.4884H36.6054V18.2326ZM36.8612 18.2326H37.117V18.4884H36.8612V18.2326ZM37.117 18.2326H37.3728V18.4884H37.117V18.2326ZM37.3728 18.2326H37.6287V18.4884H37.3728V18.2326ZM37.3728 17.9767H37.6287V18.2326H37.3728V17.9767ZM37.3728 17.7209H37.6287V17.9767H37.3728V17.7209ZM37.3728 17.4651H37.6287V17.7209H37.3728V17.4651ZM37.3728 17.2093H37.6287V17.4651H37.3728V17.2093ZM37.3728 16.9535H37.6287V17.2093H37.3728V16.9535ZM37.3728 16.6977H37.6287V16.9535H37.3728V16.6977ZM37.3728 16.4419H37.6287V16.6977H37.3728V16.4419ZM37.117 16.186H37.3728V16.4419H37.117V16.186ZM37.117 15.9302H37.3728V16.186H37.117V15.9302ZM37.117 15.6744H37.3728V15.9302H37.117V15.6744ZM37.117 15.4186H37.3728V15.6744H37.117V15.4186ZM37.3728 15.9302H37.6287V16.186H37.3728V15.9302ZM37.3728 16.186H37.6287V16.4419H37.3728V16.186ZM37.3728 15.6744H37.6287V15.9302H37.3728V15.6744ZM37.3728 15.4186H37.6287V15.6744H37.3728V15.4186ZM37.3728 15.1628H37.6287V15.4186H37.3728V15.1628ZM37.3728 14.907H37.6287V15.1628H37.3728V14.907ZM37.3728 14.6512H37.6287V14.907H37.3728V14.6512ZM37.3728 14.3953H37.6287V14.6512H37.3728V14.3953ZM37.3728 14.1395H37.6287V14.3953H37.3728V14.1395ZM37.117 14.907H37.3728V15.1628H37.117V14.907ZM37.117 15.1628H37.3728V15.4186H37.117V15.1628ZM37.117 14.6512H37.3728V14.907H37.117V14.6512ZM37.117 14.1395H37.3728V14.3953H37.117V14.1395ZM36.8612 14.1395H37.117V14.3953H36.8612V14.1395ZM36.8612 14.3953H37.117V14.6512H36.8612V14.3953ZM36.8612 14.6512H37.117V14.907H36.8612V14.6512ZM36.8612 14.907H37.117V15.1628H36.8612V14.907ZM36.8612 15.1628H37.117V15.4186H36.8612V15.1628ZM37.117 14.3953H37.3728V14.6512H37.117V14.3953ZM36.8612 15.4186H37.117V15.6744H36.8612V15.4186ZM36.8612 15.6744H37.117V15.9302H36.8612V15.6744ZM36.8612 15.9302H37.117V16.186H36.8612V15.9302ZM36.8612 16.186H37.117V16.4419H36.8612V16.186ZM36.8612 16.4419H37.117V16.6977H36.8612V16.4419ZM36.8612 16.6977H37.117V16.9535H36.8612V16.6977ZM36.8612 16.9535H37.117V17.2093H36.8612V16.9535ZM36.8612 17.2093H37.117V17.4651H36.8612V17.2093ZM36.8612 17.4651H37.117V17.7209H36.8612V17.4651ZM36.8612 17.7209H37.117V17.9767H36.8612V17.7209ZM36.8612 17.9767H37.117V18.2326H36.8612V17.9767ZM37.117 17.9767H37.3728V18.2326H37.117V17.9767ZM37.117 17.7209H37.3728V17.9767H37.117V17.7209ZM37.117 17.4651H37.3728V17.7209H37.117V17.4651ZM37.117 16.9535H37.3728V17.2093H37.117V16.9535ZM37.117 16.6977H37.3728V16.9535H37.117V16.6977ZM37.117 16.4419H37.3728V16.6977H37.117V16.4419ZM37.117 17.2093H37.3728V17.4651H37.117V17.2093ZM37.3728 18.4884H37.6287V18.7442H37.3728V18.4884ZM37.117 18.4884H37.3728V18.7442H37.117V18.4884ZM37.117 18.7442H37.3728V19H37.117V18.7442ZM37.3728 18.7442H37.6287V19H37.3728V18.7442ZM37.6287 17.9767H37.8845V18.2326H37.6287V17.9767ZM37.8845 17.9767H38.1403V18.2326H37.8845V17.9767ZM37.8845 18.2326H38.1403V18.4884H37.8845V18.2326ZM37.6287 18.2326H37.8845V18.4884H37.6287V18.2326ZM33.2798 16.6977H33.5356V16.9535H33.2798V16.6977ZM33.024 16.6977H33.2798V16.9535H33.024V16.6977ZM32.7682 17.2093H33.024V17.4651H32.7682V17.2093ZM32.5124 17.2093H32.7682V17.4651H32.5124V17.2093ZM32.2566 17.7209H32.5124V17.9767H32.2566V17.7209ZM32.0007 17.7209H32.2566V17.9767H32.0007V17.7209ZM32.2566 17.4651H32.5124V17.7209H32.2566V17.4651ZM31.7449 17.9767H32.0007V18.2326H31.7449V17.9767ZM31.4891 17.9767H31.7449V18.2326H31.4891V17.9767ZM31.4891 18.2326H31.7449V18.4884H31.4891V18.2326ZM31.7449 18.2326H32.0007V18.4884H31.7449V18.2326ZM31.2333 17.9767H31.4891V18.2326H31.2333V17.9767ZM30.9775 17.9767H31.2333V18.2326H30.9775V17.9767ZM31.2333 18.2326H31.4891V18.4884H31.2333V18.2326ZM32.2566 18.4884H32.5124V18.7442H32.2566V18.4884ZM32.0007 18.4884H32.2566V18.7442H32.0007V18.4884ZM32.0007 18.7442H32.2566V19H32.0007V18.7442ZM32.2566 18.7442H32.5124V19H32.2566V18.7442ZM32.5124 18.4884H32.7682V18.7442H32.5124V18.4884ZM32.7682 18.4884H33.024V18.7442H32.7682V18.4884ZM32.7682 18.7442H33.024V19H32.7682V18.7442ZM32.5124 18.7442H32.7682V19H32.5124V18.7442ZM32.0007 17.9767H32.2566V18.2326H32.0007V17.9767ZM33.2798 18.2326H33.5356V18.4884H33.2798V18.2326ZM33.024 18.2326H33.2798V18.4884H33.024V18.2326ZM33.2798 17.9767H33.5356V18.2326H33.2798V17.9767ZM32.2566 18.2326H32.5124V18.4884H32.2566V18.2326ZM32.0007 18.2326H32.2566V18.4884H32.0007V18.2326ZM33.5356 17.7209H33.7914V17.9767H33.5356V17.7209ZM33.7914 17.4651H34.0473V17.7209H33.7914V17.4651ZM33.7914 17.7209H34.0473V17.9767H33.7914V17.7209ZM33.5356 17.9767H33.7914V18.2326H33.5356V17.9767ZM33.024 18.4884H33.2798V18.7442H33.024V18.4884ZM35.5821 18.4884H35.838V18.7442H35.5821V18.4884ZM37.6287 18.4884H37.8845V18.7442H37.6287V18.4884ZM37.117 12.8605H37.3728V13.1163H37.117V12.8605ZM35.838 12.8605H36.0938V13.1163H35.838V12.8605ZM33.7914 12.8605H34.0473V13.1163H33.7914V12.8605ZM35.0705 12.8605H35.3263V13.1163H35.0705V12.8605ZM32.2566 12.8605H32.5124V13.1163H32.2566V12.8605ZM32.7682 12.8605H33.024V13.1163H32.7682V12.8605ZM33.2798 12.8605H33.5356V13.1163H33.2798V12.8605ZM32.5124 17.4651H32.7682V17.7209H32.5124V17.4651ZM33.024 16.9535H33.2798V17.2093H33.024V16.9535ZM31.7449 18.4884H32.0007V18.7442H31.7449V18.4884ZM31.4891 18.4884H31.7449V18.7442H31.4891V18.4884ZM31.7449 18.7442H32.0007V19H31.7449V18.7442ZM32.5124 12.6047H32.7682V12.8605H32.5124V12.6047ZM32.2566 12.6047H32.5124V12.8605H32.2566V12.6047ZM32.0007 12.8605H32.2566V13.1163H32.0007V12.8605ZM30.9775 18.2326H31.2333V18.4884H30.9775V18.2326ZM34.3031 18.4884H34.5589V18.7442H34.3031V18.4884ZM36.8612 18.4884H37.117V18.7442H36.8612V18.4884ZM38.6474 14.6512H38.9032V14.907H38.6474V14.6512ZM38.9032 14.6512H39.159V14.907H38.9032V14.6512ZM38.9032 14.907H39.159V15.1628H38.9032V14.907ZM39.159 14.3953H39.4149V14.6512H39.159V14.3953ZM39.159 14.1395H39.4149V14.3953H39.159V14.1395ZM39.4149 14.1395H39.6707V14.3953H39.4149V14.1395ZM39.4149 14.3953H39.6707V14.6512H39.4149V14.3953ZM38.6474 14.907H38.9032V15.1628H38.6474V14.907ZM39.159 14.6512H39.4149V14.907H39.159V14.6512ZM39.4149 14.6512H39.6707V14.907H39.4149V14.6512ZM39.4149 14.907H39.6707V15.1628H39.4149V14.907ZM39.159 14.907H39.4149V15.1628H39.159V14.907ZM39.159 13.8837H39.4149V14.1395H39.159V13.8837ZM39.159 13.6279H39.4149V13.8837H39.159V13.6279ZM39.4149 13.6279H39.6707V13.8837H39.4149V13.6279ZM39.4149 13.8837H39.6707V14.1395H39.4149V13.8837ZM39.6707 13.3721H39.9265V13.6279H39.6707V13.3721ZM39.6707 13.1163H39.9265V13.3721H39.6707V13.1163ZM40.1823 12.6047H40.4381V12.8605H40.1823V12.6047ZM40.4381 12.6047H40.6939V12.8605H40.4381V12.6047ZM39.159 15.1628H39.4149V15.4186H39.159V15.1628ZM39.4149 15.1628H39.6707V15.4186H39.4149V15.1628ZM39.4149 15.4186H39.6707V15.6744H39.4149V15.4186ZM39.159 15.4186H39.4149V15.6744H39.159V15.4186ZM39.159 15.6744H39.4149V15.9302H39.159V15.6744ZM39.4149 15.6744H39.6707V15.9302H39.4149V15.6744ZM39.4149 15.9302H39.6707V16.186H39.4149V15.9302ZM39.159 15.9302H39.4149V16.186H39.159V15.9302ZM39.159 16.186H39.4149V16.4419H39.159V16.186ZM39.4149 16.186H39.6707V16.4419H39.4149V16.186ZM39.4149 16.4419H39.6707V16.6977H39.4149V16.4419ZM39.159 16.4419H39.4149V16.6977H39.159V16.4419ZM39.159 16.6977H39.4149V16.9535H39.159V16.6977ZM39.4149 16.6977H39.6707V16.9535H39.4149V16.6977ZM39.4149 16.9535H39.6707V17.2093H39.4149V16.9535ZM39.159 16.9535H39.4149V17.2093H39.159V16.9535ZM38.6474 15.1628H38.9032V15.4186H38.6474V15.1628ZM38.9032 15.1628H39.159V15.4186H38.9032V15.1628ZM38.9032 15.4186H39.159V15.6744H38.9032V15.4186ZM38.6474 15.4186H38.9032V15.6744H38.6474V15.4186ZM38.6474 15.6744H38.9032V15.9302H38.6474V15.6744ZM38.9032 15.6744H39.159V15.9302H38.9032V15.6744ZM38.9032 15.9302H39.159V16.186H38.9032V15.9302ZM38.6474 15.9302H38.9032V16.186H38.6474V15.9302ZM38.6474 16.186H38.9032V16.4419H38.6474V16.186ZM38.9032 16.186H39.159V16.4419H38.9032V16.186ZM38.9032 16.4419H39.159V16.6977H38.9032V16.4419ZM38.6474 16.4419H38.9032V16.6977H38.6474V16.4419ZM38.6474 16.6977H38.9032V16.9535H38.6474V16.6977ZM38.9032 16.6977H39.159V16.9535H38.9032V16.6977ZM38.9032 16.9535H39.159V17.2093H38.9032V16.9535ZM38.6474 16.9535H38.9032V17.2093H38.6474V16.9535ZM40.1823 14.6512H40.4381V14.907H40.1823V14.6512ZM40.4381 14.6512H40.6939V14.907H40.4381V14.6512ZM40.4381 14.907H40.6939V15.1628H40.4381V14.907ZM40.1823 14.907H40.4381V15.1628H40.1823V14.907ZM40.6939 14.6512H40.9497V14.907H40.6939V14.6512ZM40.9497 14.907H41.2056V15.1628H40.9497V14.907ZM40.6939 14.907H40.9497V15.1628H40.6939V14.907ZM40.9497 14.6512H41.2056V14.907H40.9497V14.6512ZM40.4381 15.6744H40.6939V15.9302H40.4381V15.6744ZM40.1823 15.6744H40.4381V15.9302H40.1823V15.6744ZM40.1823 15.9302H40.4381V16.186H40.1823V15.9302ZM40.4381 15.9302H40.6939V16.186H40.4381V15.9302ZM40.9497 15.6744H41.2056V15.9302H40.9497V15.6744ZM40.6939 15.6744H40.9497V15.9302H40.6939V15.6744ZM40.9497 15.9302H41.2056V16.186H40.9497V15.9302ZM40.6939 15.9302H40.9497V16.186H40.6939V15.9302ZM41.2056 14.6512H41.4614V14.907H41.2056V14.6512ZM41.4614 14.6512H41.7172V14.907H41.4614V14.6512ZM41.4614 14.907H41.7172V15.1628H41.4614V14.907ZM41.4614 15.1628H41.7172V15.4186H41.4614V15.1628ZM41.4614 15.4186H41.7172V15.6744H41.4614V15.4186ZM41.4614 15.6744H41.7172V15.9302H41.4614V15.6744ZM41.4614 15.9302H41.7172V16.186H41.4614V15.9302ZM41.2056 15.9302H41.4614V16.186H41.2056V15.9302ZM41.2056 15.6744H41.4614V15.9302H41.2056V15.6744ZM41.2056 15.4186H41.4614V15.6744H41.2056V15.4186ZM41.2056 15.1628H41.4614V15.4186H41.2056V15.1628ZM41.2056 14.907H41.4614V15.1628H41.2056V14.907ZM41.2056 14.3953H41.4614V14.6512H41.2056V14.3953ZM41.2056 14.1395H41.4614V14.3953H41.2056V14.1395ZM41.4614 14.1395H41.7172V14.3953H41.4614V14.1395ZM41.4614 14.3953H41.7172V14.6512H41.4614V14.3953ZM41.4614 13.8837H41.7172V14.1395H41.4614V13.8837ZM41.4614 13.6279H41.7172V13.8837H41.4614V13.6279ZM41.2056 13.6279H41.4614V13.8837H41.2056V13.6279ZM41.2056 13.8837H41.4614V14.1395H41.2056V13.8837ZM41.2056 16.186H41.4614V16.4419H41.2056V16.186ZM41.4614 16.186H41.7172V16.4419H41.4614V16.186ZM41.4614 16.4419H41.7172V16.6977H41.4614V16.4419ZM41.2056 16.4419H41.4614V16.6977H41.2056V16.4419ZM41.2056 16.6977H41.4614V16.9535H41.2056V16.6977ZM41.4614 16.6977H41.7172V16.9535H41.4614V16.6977ZM41.4614 16.9535H41.7172V17.2093H41.4614V16.9535ZM41.2056 16.9535H41.4614V17.2093H41.2056V16.9535ZM41.7172 13.3721H41.973V13.6279H41.7172V13.3721ZM41.7172 13.1163H41.973V13.3721H41.7172V13.1163ZM41.973 13.1163H42.2288V13.3721H41.973V13.1163ZM41.973 13.3721H42.2288V13.6279H41.973V13.3721ZM41.7172 14.1395H41.973V14.3953H41.7172V14.1395ZM41.973 14.3953H42.2288V14.6512H41.973V14.3953ZM41.973 14.6512H42.2288V14.907H41.973V14.6512ZM41.7172 14.907H41.973V15.1628H41.7172V14.907ZM41.7172 15.1628H41.973V15.4186H41.7172V15.1628ZM41.7172 15.4186H41.973V15.6744H41.7172V15.4186ZM41.7172 14.3953H41.973V14.6512H41.7172V14.3953ZM41.7172 14.6512H41.973V14.907H41.7172V14.6512ZM41.973 14.907H42.2288V15.1628H41.973V14.907ZM41.973 15.1628H42.2288V15.4186H41.973V15.1628ZM41.973 15.4186H42.2288V15.6744H41.973V15.4186ZM41.7172 15.6744H41.973V15.9302H41.7172V15.6744ZM41.7172 15.9302H41.973V16.186H41.7172V15.9302ZM41.973 15.9302H42.2288V16.186H41.973V15.9302ZM41.973 15.6744H42.2288V15.9302H41.973V15.6744ZM41.973 16.186H42.2288V16.4419H41.973V16.186ZM41.973 16.4419H42.2288V16.6977H41.973V16.4419ZM41.7172 16.4419H41.973V16.6977H41.7172V16.4419ZM41.7172 16.186H41.973V16.4419H41.7172V16.186ZM41.7172 16.6977H41.973V16.9535H41.7172V16.6977ZM41.973 16.6977H42.2288V16.9535H41.973V16.6977ZM41.973 16.9535H42.2288V17.2093H41.973V16.9535ZM41.7172 16.9535H41.973V17.2093H41.7172V16.9535ZM41.4614 17.2093H41.7172V17.4651H41.4614V17.2093ZM41.2056 17.2093H41.4614V17.4651H41.2056V17.2093ZM41.2056 17.4651H41.4614V17.7209H41.2056V17.4651ZM41.4614 17.4651H41.7172V17.7209H41.4614V17.4651ZM40.9497 17.4651H41.2056V17.7209H40.9497V17.4651ZM40.6939 17.4651H40.9497V17.7209H40.6939V17.4651ZM40.9497 17.2093H41.2056V17.4651H40.9497V17.2093ZM39.4149 17.2093H39.6707V17.4651H39.4149V17.2093ZM39.159 17.2093H39.4149V17.4651H39.159V17.2093ZM39.159 17.4651H39.4149V17.7209H39.159V17.4651ZM39.4149 17.4651H39.6707V17.7209H39.4149V17.4651ZM40.4381 12.8605H40.6939V13.1163H40.4381V12.8605ZM40.1823 12.8605H40.4381V13.1163H40.1823V12.8605ZM39.9265 13.1163H40.1823V13.3721H39.9265V13.1163ZM39.9265 13.3721H40.1823V13.6279H39.9265V13.3721ZM39.6707 17.4651H39.9265V17.7209H39.6707V17.4651ZM39.159 17.7209H39.4149V17.9767H39.159V17.7209ZM39.4149 17.7209H39.6707V17.9767H39.4149V17.7209ZM39.6707 17.7209H39.9265V17.9767H39.6707V17.7209ZM39.9265 17.7209H40.1823V17.9767H39.9265V17.7209ZM40.1823 17.9767H40.4381V18.2326H40.1823V17.9767ZM39.9265 17.9767H40.1823V18.2326H39.9265V17.9767ZM39.6707 17.9767H39.9265V18.2326H39.6707V17.9767ZM39.4149 17.9767H39.6707V18.2326H39.4149V17.9767ZM40.1823 18.2326H40.4381V18.4884H40.1823V18.2326ZM40.4381 18.2326H40.6939V18.4884H40.4381V18.2326ZM40.4381 18.4884H40.6939V18.7442H40.4381V18.4884ZM40.1823 18.4884H40.4381V18.7442H40.1823V18.4884ZM40.6939 18.2326H40.9497V18.4884H40.6939V18.2326ZM40.9497 18.2326H41.2056V18.4884H40.9497V18.2326ZM40.9497 18.4884H41.2056V18.7442H40.9497V18.4884ZM40.6939 18.4884H40.9497V18.7442H40.6939V18.4884ZM41.2056 18.2326H41.4614V18.4884H41.2056V18.2326ZM41.4614 18.2326H41.7172V18.4884H41.4614V18.2326ZM41.4614 18.4884H41.7172V18.7442H41.4614V18.4884ZM41.2056 18.4884H41.4614V18.7442H41.2056V18.4884ZM41.7172 18.2326H41.973V18.4884H41.7172V18.2326ZM41.973 18.2326H42.2288V18.4884H41.973V18.2326ZM41.973 18.4884H42.2288V18.7442H41.973V18.4884ZM41.7172 18.4884H41.973V18.7442H41.7172V18.4884ZM42.2288 18.2326H42.4846V18.4884H42.2288V18.2326ZM42.4846 18.2326H42.7404V18.4884H42.4846V18.2326ZM42.4846 18.4884H42.7404V18.7442H42.4846V18.4884ZM42.2288 18.4884H42.4846V18.7442H42.2288V18.4884ZM42.7404 18.2326H42.9963V18.4884H42.7404V18.2326ZM42.9963 18.2326H43.2521V18.4884H42.9963V18.2326ZM42.7404 15.9302H42.9963V16.186H42.7404V15.9302ZM42.7404 15.6744H42.9963V15.9302H42.7404V15.6744ZM42.9963 15.6744H43.2521V15.9302H42.9963V15.6744ZM42.9963 15.4186H43.2521V15.6744H42.9963V15.4186ZM42.9963 15.9302H43.2521V16.186H42.9963V15.9302ZM42.7404 15.4186H42.9963V15.6744H42.7404V15.4186ZM42.7404 15.1628H42.9963V15.4186H42.7404V15.1628ZM42.7404 14.907H42.9963V15.1628H42.7404V14.907ZM42.7404 14.6512H42.9963V14.907H42.7404V14.6512ZM42.9963 14.6512H43.2521V14.907H42.9963V14.6512ZM42.9963 14.907H43.2521V15.1628H42.9963V14.907ZM42.9963 15.1628H43.2521V15.4186H42.9963V15.1628ZM42.7404 14.3953H42.9963V14.6512H42.7404V14.3953ZM42.7404 14.1395H42.9963V14.3953H42.7404V14.1395ZM42.9963 14.1395H43.2521V14.3953H42.9963V14.1395ZM42.9963 14.3953H43.2521V14.6512H42.9963V14.3953ZM42.2288 12.8605H42.4846V13.1163H42.2288V12.8605ZM42.2288 12.6047H42.4846V12.8605H42.2288V12.6047ZM42.4846 12.6047H42.7404V12.8605H42.4846V12.6047ZM42.4846 12.8605H42.7404V13.1163H42.4846V12.8605ZM42.9963 12.8605H43.2521V13.1163H42.9963V12.8605ZM42.7404 12.8605H42.9963V13.1163H42.7404V12.8605ZM42.7404 12.6047H42.9963V12.8605H42.7404V12.6047ZM42.9963 13.1163H43.2521V13.3721H42.9963V13.1163ZM42.7404 13.1163H42.9963V13.3721H42.7404V13.1163ZM42.7404 13.3721H42.9963V13.6279H42.7404V13.3721ZM42.9963 13.3721H43.2521V13.6279H42.9963V13.3721ZM43.2521 13.1163H43.5079V13.3721H43.2521V13.1163ZM43.5079 13.1163H43.7637V13.3721H43.5079V13.1163ZM43.5079 13.3721H43.7637V13.6279H43.5079V13.3721ZM43.2521 13.3721H43.5079V13.6279H43.2521V13.3721ZM43.7637 12.8605H44.0195V13.1163H43.7637V12.8605ZM44.0195 12.6047H44.2753V12.8605H44.0195V12.6047ZM44.0195 12.8605H44.2753V13.1163H44.0195V12.8605ZM39.9265 12.8605H40.1823V13.1163H39.9265V12.8605ZM40.1823 13.1163H40.4381V13.3721H40.1823V13.1163ZM39.4149 13.3721H39.6707V13.6279H39.4149V13.3721ZM39.6707 13.6279H39.9265V13.8837H39.6707V13.6279ZM38.9032 14.1395H39.159V14.3953H38.9032V14.1395ZM38.9032 14.3953H39.159V14.6512H38.9032V14.3953ZM39.9265 18.2326H40.1823V18.4884H39.9265V18.2326ZM38.9032 17.2093H39.159V17.4651H38.9032V17.2093ZM39.6707 18.2326H39.9265V18.4884H39.6707V18.2326ZM39.9265 18.4884H40.1823V18.7442H39.9265V18.4884ZM39.6707 13.8837H39.9265V14.1395H39.6707V13.8837ZM39.9265 13.6279H40.1823V13.8837H39.9265V13.6279ZM39.6707 14.1395H39.9265V14.3953H39.6707V14.1395ZM43.7637 13.1163H44.0195V13.3721H43.7637V13.1163ZM42.4846 13.1163H42.7404V13.3721H42.4846V13.1163ZM41.973 12.8605H42.2288V13.1163H41.973V12.8605ZM41.4614 13.3721H41.7172V13.6279H41.4614V13.3721ZM41.7172 17.2093H41.973V17.4651H41.7172V17.2093ZM38.9032 17.4651H39.159V17.7209H38.9032V17.4651ZM38.6474 17.2093H38.9032V17.4651H38.6474V17.2093ZM38.9032 17.7209H39.159V17.9767H38.9032V17.7209ZM39.159 17.9767H39.4149V18.2326H39.159V17.9767ZM39.4149 18.2326H39.6707V18.4884H39.4149V18.2326ZM40.4381 17.9767H40.6939V18.2326H40.4381V17.9767ZM39.6707 17.2093H39.9265V17.4651H39.6707V17.2093ZM40.6939 12.6047H40.9497V12.8605H40.6939V12.6047ZM42.9963 17.9767H43.2521V18.2326H42.9963V17.9767ZM42.7404 18.4884H42.9963V18.7442H42.7404V18.4884ZM40.4381 18.7442H40.6939V19H40.4381V18.7442ZM40.6939 18.7442H40.9497V19H40.6939V18.7442ZM40.9497 18.7442H41.2056V19H40.9497V18.7442ZM41.2056 18.7442H41.4614V19H41.2056V18.7442ZM41.4614 18.7442H41.7172V19H41.4614V18.7442ZM41.7172 18.7442H41.973V19H41.7172V18.7442ZM41.973 18.7442H42.2288V19H41.973V18.7442ZM42.2288 18.7442H42.4846V19H42.2288V18.7442ZM41.7172 13.6279H41.973V13.8837H41.7172V13.6279ZM43.2521 17.9767H43.5079V18.2326H43.2521V17.9767ZM43.2521 18.2326H43.5079V18.4884H43.2521V18.2326ZM43.5079 17.9767H43.7637V18.2326H43.5079V17.9767ZM43.5079 17.7209H43.7637V17.9767H43.5079V17.7209ZM43.7637 17.7209H44.0195V17.9767H43.7637V17.7209ZM43.7637 17.4651H44.0195V17.7209H43.7637V17.4651ZM44.7919 14.6512H45.0478V14.907H44.7919V14.6512ZM45.0478 14.6512H45.3036V14.907H45.0478V14.6512ZM45.0478 14.907H45.3036V15.1628H45.0478V14.907ZM45.3036 14.3953H45.5594V14.6512H45.3036V14.3953ZM45.3036 14.1395H45.5594V14.3953H45.3036V14.1395ZM45.5594 14.1395H45.8152V14.3953H45.5594V14.1395ZM45.5594 14.3953H45.8152V14.6512H45.5594V14.3953ZM44.7919 14.907H45.0478V15.1628H44.7919V14.907ZM45.3036 14.6512H45.5594V14.907H45.3036V14.6512ZM45.5594 14.6512H45.8152V14.907H45.5594V14.6512ZM45.5594 14.907H45.8152V15.1628H45.5594V14.907ZM45.3036 14.907H45.5594V15.1628H45.3036V14.907ZM45.3036 13.8837H45.5594V14.1395H45.3036V13.8837ZM45.3036 13.6279H45.5594V13.8837H45.3036V13.6279ZM45.5594 13.6279H45.8152V13.8837H45.5594V13.6279ZM45.5594 13.8837H45.8152V14.1395H45.5594V13.8837ZM45.8152 13.3721H46.071V13.6279H45.8152V13.3721ZM45.8152 13.1163H46.071V13.3721H45.8152V13.1163ZM46.3268 12.6047H46.5826V12.8605H46.3268V12.6047ZM46.5826 12.6047H46.8385V12.8605H46.5826V12.6047ZM45.3036 15.1628H45.5594V15.4186H45.3036V15.1628ZM45.5594 15.1628H45.8152V15.4186H45.5594V15.1628ZM45.5594 15.4186H45.8152V15.6744H45.5594V15.4186ZM45.3036 15.4186H45.5594V15.6744H45.3036V15.4186ZM45.3036 15.6744H45.5594V15.9302H45.3036V15.6744ZM45.5594 15.6744H45.8152V15.9302H45.5594V15.6744ZM45.5594 15.9302H45.8152V16.186H45.5594V15.9302ZM45.3036 15.9302H45.5594V16.186H45.3036V15.9302ZM45.3036 16.186H45.5594V16.4419H45.3036V16.186ZM45.5594 16.186H45.8152V16.4419H45.5594V16.186ZM45.5594 16.4419H45.8152V16.6977H45.5594V16.4419ZM45.3036 16.4419H45.5594V16.6977H45.3036V16.4419ZM45.3036 16.6977H45.5594V16.9535H45.3036V16.6977ZM45.5594 16.6977H45.8152V16.9535H45.5594V16.6977ZM45.5594 16.9535H45.8152V17.2093H45.5594V16.9535ZM45.3036 16.9535H45.5594V17.2093H45.3036V16.9535ZM44.7919 15.1628H45.0478V15.4186H44.7919V15.1628ZM45.0478 15.1628H45.3036V15.4186H45.0478V15.1628ZM45.0478 15.4186H45.3036V15.6744H45.0478V15.4186ZM44.7919 15.4186H45.0478V15.6744H44.7919V15.4186ZM44.7919 15.6744H45.0478V15.9302H44.7919V15.6744ZM45.0478 15.6744H45.3036V15.9302H45.0478V15.6744ZM45.0478 15.9302H45.3036V16.186H45.0478V15.9302ZM44.7919 15.9302H45.0478V16.186H44.7919V15.9302ZM44.7919 16.186H45.0478V16.4419H44.7919V16.186ZM45.0478 16.186H45.3036V16.4419H45.0478V16.186ZM45.0478 16.4419H45.3036V16.6977H45.0478V16.4419ZM44.7919 16.4419H45.0478V16.6977H44.7919V16.4419ZM44.7919 16.6977H45.0478V16.9535H44.7919V16.6977ZM45.0478 16.6977H45.3036V16.9535H45.0478V16.6977ZM45.0478 16.9535H45.3036V17.2093H45.0478V16.9535ZM44.7919 16.9535H45.0478V17.2093H44.7919V16.9535ZM46.3268 14.6512H46.5826V14.907H46.3268V14.6512ZM46.5826 14.6512H46.8385V14.907H46.5826V14.6512ZM46.5826 14.907H46.8385V15.1628H46.5826V14.907ZM46.3268 14.907H46.5826V15.1628H46.3268V14.907ZM46.8385 14.6512H47.0943V14.907H46.8385V14.6512ZM47.0943 14.907H47.3501V15.1628H47.0943V14.907ZM46.8385 14.907H47.0943V15.1628H46.8385V14.907ZM47.0943 14.6512H47.3501V14.907H47.0943V14.6512ZM46.5826 15.6744H46.8385V15.9302H46.5826V15.6744ZM46.3268 15.6744H46.5826V15.9302H46.3268V15.6744ZM46.3268 15.9302H46.5826V16.186H46.3268V15.9302ZM46.5826 15.9302H46.8385V16.186H46.5826V15.9302ZM47.0943 15.6744H47.3501V15.9302H47.0943V15.6744ZM46.8385 15.6744H47.0943V15.9302H46.8385V15.6744ZM47.0943 15.9302H47.3501V16.186H47.0943V15.9302ZM46.8385 15.9302H47.0943V16.186H46.8385V15.9302ZM47.3501 14.6512H47.6059V14.907H47.3501V14.6512ZM47.6059 14.6512H47.8617V14.907H47.6059V14.6512ZM47.6059 14.907H47.8617V15.1628H47.6059V14.907ZM47.6059 15.1628H47.8617V15.4186H47.6059V15.1628ZM47.6059 15.4186H47.8617V15.6744H47.6059V15.4186ZM47.6059 15.6744H47.8617V15.9302H47.6059V15.6744ZM47.6059 15.9302H47.8617V16.186H47.6059V15.9302ZM47.3501 15.9302H47.6059V16.186H47.3501V15.9302ZM47.3501 15.6744H47.6059V15.9302H47.3501V15.6744ZM47.3501 15.4186H47.6059V15.6744H47.3501V15.4186ZM47.3501 15.1628H47.6059V15.4186H47.3501V15.1628ZM47.3501 14.907H47.6059V15.1628H47.3501V14.907ZM47.3501 14.3953H47.6059V14.6512H47.3501V14.3953ZM47.3501 14.1395H47.6059V14.3953H47.3501V14.1395ZM47.6059 14.1395H47.8617V14.3953H47.6059V14.1395ZM47.6059 14.3953H47.8617V14.6512H47.6059V14.3953ZM47.6059 13.8837H47.8617V14.1395H47.6059V13.8837ZM47.6059 13.6279H47.8617V13.8837H47.6059V13.6279ZM47.3501 13.6279H47.6059V13.8837H47.3501V13.6279ZM47.3501 13.8837H47.6059V14.1395H47.3501V13.8837ZM47.3501 16.186H47.6059V16.4419H47.3501V16.186ZM47.6059 16.186H47.8617V16.4419H47.6059V16.186ZM47.6059 16.4419H47.8617V16.6977H47.6059V16.4419ZM47.3501 16.4419H47.6059V16.6977H47.3501V16.4419ZM47.3501 16.6977H47.6059V16.9535H47.3501V16.6977ZM47.6059 16.6977H47.8617V16.9535H47.6059V16.6977ZM47.6059 16.9535H47.8617V17.2093H47.6059V16.9535ZM47.3501 16.9535H47.6059V17.2093H47.3501V16.9535ZM47.8617 13.3721H48.1175V13.6279H47.8617V13.3721ZM47.8617 13.1163H48.1175V13.3721H47.8617V13.1163ZM48.1175 13.1163H48.3733V13.3721H48.1175V13.1163ZM48.1175 13.3721H48.3733V13.6279H48.1175V13.3721ZM47.8617 14.1395H48.1175V14.3953H47.8617V14.1395ZM48.1175 14.3953H48.3733V14.6512H48.1175V14.3953ZM48.1175 14.6512H48.3733V14.907H48.1175V14.6512ZM47.8617 14.907H48.1175V15.1628H47.8617V14.907ZM47.8617 15.1628H48.1175V15.4186H47.8617V15.1628ZM47.8617 15.4186H48.1175V15.6744H47.8617V15.4186ZM47.8617 14.3953H48.1175V14.6512H47.8617V14.3953ZM47.8617 14.6512H48.1175V14.907H47.8617V14.6512ZM48.1175 14.907H48.3733V15.1628H48.1175V14.907ZM48.1175 15.1628H48.3733V15.4186H48.1175V15.1628ZM48.1175 15.4186H48.3733V15.6744H48.1175V15.4186ZM47.8617 15.6744H48.1175V15.9302H47.8617V15.6744ZM47.8617 15.9302H48.1175V16.186H47.8617V15.9302ZM48.1175 15.9302H48.3733V16.186H48.1175V15.9302ZM48.1175 15.6744H48.3733V15.9302H48.1175V15.6744ZM48.1175 16.186H48.3733V16.4419H48.1175V16.186ZM48.1175 16.4419H48.3733V16.6977H48.1175V16.4419ZM47.8617 16.4419H48.1175V16.6977H47.8617V16.4419ZM47.8617 16.186H48.1175V16.4419H47.8617V16.186ZM47.8617 16.6977H48.1175V16.9535H47.8617V16.6977ZM48.1175 16.6977H48.3733V16.9535H48.1175V16.6977ZM48.1175 16.9535H48.3733V17.2093H48.1175V16.9535ZM47.8617 16.9535H48.1175V17.2093H47.8617V16.9535ZM47.6059 17.2093H47.8617V17.4651H47.6059V17.2093ZM47.3501 17.2093H47.6059V17.4651H47.3501V17.2093ZM47.3501 17.4651H47.6059V17.7209H47.3501V17.4651ZM47.6059 17.4651H47.8617V17.7209H47.6059V17.4651ZM47.0943 17.4651H47.3501V17.7209H47.0943V17.4651ZM46.8385 17.4651H47.0943V17.7209H46.8385V17.4651ZM47.0943 17.2093H47.3501V17.4651H47.0943V17.2093ZM45.5594 17.2093H45.8152V17.4651H45.5594V17.2093ZM45.3036 17.2093H45.5594V17.4651H45.3036V17.2093ZM45.3036 17.4651H45.5594V17.7209H45.3036V17.4651ZM45.5594 17.4651H45.8152V17.7209H45.5594V17.4651ZM46.5826 12.8605H46.8385V13.1163H46.5826V12.8605ZM46.3268 12.8605H46.5826V13.1163H46.3268V12.8605ZM46.071 13.1163H46.3268V13.3721H46.071V13.1163ZM46.071 13.3721H46.3268V13.6279H46.071V13.3721ZM45.8152 17.4651H46.071V17.7209H45.8152V17.4651ZM45.3036 17.7209H45.5594V17.9767H45.3036V17.7209ZM45.5594 17.7209H45.8152V17.9767H45.5594V17.7209ZM45.8152 17.7209H46.071V17.9767H45.8152V17.7209ZM46.071 17.7209H46.3268V17.9767H46.071V17.7209ZM46.3268 17.9767H46.5826V18.2326H46.3268V17.9767ZM46.071 17.9767H46.3268V18.2326H46.071V17.9767ZM45.8152 17.9767H46.071V18.2326H45.8152V17.9767ZM45.5594 17.9767H45.8152V18.2326H45.5594V17.9767ZM46.3268 18.2326H46.5826V18.4884H46.3268V18.2326ZM46.5826 18.2326H46.8385V18.4884H46.5826V18.2326ZM46.5826 18.4884H46.8385V18.7442H46.5826V18.4884ZM46.3268 18.4884H46.5826V18.7442H46.3268V18.4884ZM46.8385 18.2326H47.0943V18.4884H46.8385V18.2326ZM47.0943 18.2326H47.3501V18.4884H47.0943V18.2326ZM47.0943 18.4884H47.3501V18.7442H47.0943V18.4884ZM46.8385 18.4884H47.0943V18.7442H46.8385V18.4884ZM47.3501 18.2326H47.6059V18.4884H47.3501V18.2326ZM47.6059 18.2326H47.8617V18.4884H47.6059V18.2326ZM47.6059 18.4884H47.8617V18.7442H47.6059V18.4884ZM47.3501 18.4884H47.6059V18.7442H47.3501V18.4884ZM47.8617 18.2326H48.1175V18.4884H47.8617V18.2326ZM48.1175 18.2326H48.3733V18.4884H48.1175V18.2326ZM48.1175 18.4884H48.3733V18.7442H48.1175V18.4884ZM47.8617 18.4884H48.1175V18.7442H47.8617V18.4884ZM48.3733 18.2326H48.6292V18.4884H48.3733V18.2326ZM48.6292 18.2326H48.885V18.4884H48.6292V18.2326ZM48.6292 18.4884H48.885V18.7442H48.6292V18.4884ZM48.3733 18.4884H48.6292V18.7442H48.3733V18.4884ZM48.885 18.2326H49.1408V18.4884H48.885V18.2326ZM49.1408 18.2326H49.3966V18.4884H49.1408V18.2326ZM48.885 15.9302H49.1408V16.186H48.885V15.9302ZM48.885 15.6744H49.1408V15.9302H48.885V15.6744ZM49.1408 15.6744H49.3966V15.9302H49.1408V15.6744ZM49.1408 15.4186H49.3966V15.6744H49.1408V15.4186ZM49.1408 15.9302H49.3966V16.186H49.1408V15.9302ZM48.885 15.4186H49.1408V15.6744H48.885V15.4186ZM48.885 15.1628H49.1408V15.4186H48.885V15.1628ZM48.885 14.907H49.1408V15.1628H48.885V14.907ZM48.885 14.6512H49.1408V14.907H48.885V14.6512ZM49.1408 14.6512H49.3966V14.907H49.1408V14.6512ZM49.1408 14.907H49.3966V15.1628H49.1408V14.907ZM49.1408 15.1628H49.3966V15.4186H49.1408V15.1628ZM48.885 14.3953H49.1408V14.6512H48.885V14.3953ZM48.885 14.1395H49.1408V14.3953H48.885V14.1395ZM49.1408 14.1395H49.3966V14.3953H49.1408V14.1395ZM49.1408 14.3953H49.3966V14.6512H49.1408V14.3953ZM48.3733 12.8605H48.6292V13.1163H48.3733V12.8605ZM48.3733 12.6047H48.6292V12.8605H48.3733V12.6047ZM48.6292 12.6047H48.885V12.8605H48.6292V12.6047ZM48.6292 12.8605H48.885V13.1163H48.6292V12.8605ZM49.1408 12.8605H49.3966V13.1163H49.1408V12.8605ZM48.885 12.8605H49.1408V13.1163H48.885V12.8605ZM48.885 12.6047H49.1408V12.8605H48.885V12.6047ZM49.1408 13.1163H49.3966V13.3721H49.1408V13.1163ZM48.885 13.1163H49.1408V13.3721H48.885V13.1163ZM48.885 13.3721H49.1408V13.6279H48.885V13.3721ZM49.1408 13.3721H49.3966V13.6279H49.1408V13.3721ZM49.3966 13.1163H49.6524V13.3721H49.3966V13.1163ZM49.6524 13.1163H49.9082V13.3721H49.6524V13.1163ZM49.6524 13.3721H49.9082V13.6279H49.6524V13.3721ZM49.3966 13.3721H49.6524V13.6279H49.3966V13.3721ZM49.9082 12.8605H50.164V13.1163H49.9082V12.8605ZM50.164 12.6047H50.4199V12.8605H50.164V12.6047ZM50.164 12.8605H50.4199V13.1163H50.164V12.8605ZM46.071 12.8605H46.3268V13.1163H46.071V12.8605ZM46.3268 13.1163H46.5826V13.3721H46.3268V13.1163ZM45.5594 13.3721H45.8152V13.6279H45.5594V13.3721ZM45.8152 13.6279H46.071V13.8837H45.8152V13.6279ZM45.0478 14.1395H45.3036V14.3953H45.0478V14.1395ZM45.0478 14.3953H45.3036V14.6512H45.0478V14.3953ZM46.071 18.2326H46.3268V18.4884H46.071V18.2326ZM45.0478 17.2093H45.3036V17.4651H45.0478V17.2093ZM45.8152 18.2326H46.071V18.4884H45.8152V18.2326ZM46.071 18.4884H46.3268V18.7442H46.071V18.4884ZM45.8152 13.8837H46.071V14.1395H45.8152V13.8837ZM46.071 13.6279H46.3268V13.8837H46.071V13.6279ZM45.8152 14.1395H46.071V14.3953H45.8152V14.1395ZM49.9082 13.1163H50.164V13.3721H49.9082V13.1163ZM48.6292 13.1163H48.885V13.3721H48.6292V13.1163ZM48.1175 12.8605H48.3733V13.1163H48.1175V12.8605ZM47.6059 13.3721H47.8617V13.6279H47.6059V13.3721ZM47.8617 17.2093H48.1175V17.4651H47.8617V17.2093ZM45.0478 17.4651H45.3036V17.7209H45.0478V17.4651ZM44.7919 17.2093H45.0478V17.4651H44.7919V17.2093ZM45.0478 17.7209H45.3036V17.9767H45.0478V17.7209ZM45.3036 17.9767H45.5594V18.2326H45.3036V17.9767ZM45.5594 18.2326H45.8152V18.4884H45.5594V18.2326ZM46.5826 17.9767H46.8385V18.2326H46.5826V17.9767ZM45.8152 17.2093H46.071V17.4651H45.8152V17.2093ZM46.8385 12.6047H47.0943V12.8605H46.8385V12.6047ZM49.1408 17.9767H49.3966V18.2326H49.1408V17.9767ZM48.885 18.4884H49.1408V18.7442H48.885V18.4884ZM46.5826 18.7442H46.8385V19H46.5826V18.7442ZM46.8385 18.7442H47.0943V19H46.8385V18.7442ZM47.0943 18.7442H47.3501V19H47.0943V18.7442ZM47.3501 18.7442H47.6059V19H47.3501V18.7442ZM47.6059 18.7442H47.8617V19H47.6059V18.7442ZM47.8617 18.7442H48.1175V19H47.8617V18.7442ZM48.1175 18.7442H48.3733V19H48.1175V18.7442ZM48.3733 18.7442H48.6292V19H48.3733V18.7442ZM47.8617 13.6279H48.1175V13.8837H47.8617V13.6279ZM49.3966 17.9767H49.6524V18.2326H49.3966V17.9767ZM49.3966 18.2326H49.6524V18.4884H49.3966V18.2326ZM49.6524 17.9767H49.9082V18.2326H49.6524V17.9767ZM49.6524 17.7209H49.9082V17.9767H49.6524V17.7209ZM49.9082 17.7209H50.164V17.9767H49.9082V17.7209ZM49.9082 17.4651H50.164V17.7209H49.9082V17.4651ZM51.9597 12.6047H52.2155V12.8605H51.9597V12.6047ZM52.2155 12.6047H52.4714V12.8605H52.2155V12.6047ZM52.2155 12.8605H52.4714V13.1163H52.2155V12.8605ZM51.9597 12.8605H52.2155V13.1163H51.9597V12.8605ZM51.7039 13.1163H51.9597V13.3721H51.7039V13.1163ZM51.4481 13.1163H51.7039V13.3721H51.4481V13.1163ZM51.1923 13.3721H51.4481V13.6279H51.1923V13.3721ZM51.4481 13.3721H51.7039V13.6279H51.4481V13.3721ZM52.7272 12.6047H52.983V12.8605H52.7272V12.6047ZM52.4714 12.6047H52.7272V12.8605H52.4714V12.6047ZM52.4714 12.8605H52.7272V13.1163H52.4714V12.8605ZM52.7272 12.8605H52.983V13.1163H52.7272V12.8605ZM52.983 12.6047H53.2388V12.8605H52.983V12.6047ZM53.2388 12.8605H53.4946V13.1163H53.2388V12.8605ZM52.983 12.8605H53.2388V13.1163H52.983V12.8605ZM53.4946 13.1163H53.7504V13.3721H53.4946V13.1163ZM53.7504 13.3721H54.0062V13.6279H53.7504V13.3721ZM53.4946 13.3721H53.7504V13.6279H53.4946V13.3721ZM53.2388 13.3721H53.4946V13.6279H53.2388V13.3721ZM52.983 13.3721H53.2388V13.6279H52.983V13.3721ZM52.7272 13.3721H52.983V13.6279H52.7272V13.3721ZM52.4714 13.1163H52.7272V13.3721H52.4714V13.1163ZM52.7272 13.1163H52.983V13.3721H52.7272V13.1163ZM52.983 13.1163H53.2388V13.3721H52.983V13.1163ZM53.2388 13.1163H53.4946V13.3721H53.2388V13.1163ZM54.5179 13.1163H54.7737V13.3721H54.5179V13.1163ZM54.7737 13.1163H55.0295V13.3721H54.7737V13.1163ZM54.5179 13.3721H54.7737V13.6279H54.5179V13.3721ZM55.0295 12.8605H55.2853V13.1163H55.0295V12.8605ZM55.0295 12.6047H55.2853V12.8605H55.0295V12.6047ZM55.2853 12.6047H55.5411V12.8605H55.2853V12.6047ZM55.2853 12.8605H55.5411V13.1163H55.2853V12.8605ZM54.0062 13.6279H54.2621V13.8837H54.0062V13.6279ZM54.2621 13.6279H54.5179V13.8837H54.2621V13.6279ZM54.2621 13.8837H54.5179V14.1395H54.2621V13.8837ZM54.7737 14.1395H55.0295V14.3953H54.7737V14.1395ZM54.7737 14.3953H55.0295V14.6512H54.7737V14.3953ZM54.5179 14.3953H54.7737V14.6512H54.5179V14.3953ZM54.5179 14.6512H54.7737V14.907H54.5179V14.6512ZM54.5179 14.907H54.7737V15.1628H54.5179V14.907ZM54.5179 15.1628H54.7737V15.4186H54.5179V15.1628ZM54.5179 15.4186H54.7737V15.6744H54.5179V15.4186ZM54.5179 15.6744H54.7737V15.9302H54.5179V15.6744ZM54.7737 15.6744H55.0295V15.9302H54.7737V15.6744ZM54.7737 15.4186H55.0295V15.6744H54.7737V15.4186ZM54.7737 15.1628H55.0295V15.4186H54.7737V15.1628ZM54.7737 14.907H55.0295V15.1628H54.7737V14.907ZM54.7737 14.6512H55.0295V14.907H54.7737V14.6512ZM53.7504 13.6279H54.0062V13.8837H53.7504V13.6279ZM53.7504 13.8837H54.0062V14.1395H53.7504V13.8837ZM53.7504 14.1395H54.0062V14.3953H53.7504V14.1395ZM53.7504 14.3953H54.0062V14.6512H53.7504V14.3953ZM53.7504 14.6512H54.0062V14.907H53.7504V14.6512ZM53.7504 14.907H54.0062V15.1628H53.7504V14.907ZM53.7504 15.1628H54.0062V15.4186H53.7504V15.1628ZM53.7504 15.4186H54.0062V15.6744H53.7504V15.4186ZM53.7504 15.6744H54.0062V15.9302H53.7504V15.6744ZM53.4946 15.6744H53.7504V15.9302H53.4946V15.6744ZM53.4946 15.4186H53.7504V15.6744H53.4946V15.4186ZM53.4946 15.1628H53.7504V15.4186H53.4946V15.1628ZM53.4946 14.907H53.7504V15.1628H53.4946V14.907ZM53.4946 14.6512H53.7504V14.907H53.4946V14.6512ZM53.4946 14.3953H53.7504V14.6512H53.4946V14.3953ZM53.4946 14.1395H53.7504V14.3953H53.4946V14.1395ZM53.4946 13.8837H53.7504V14.1395H53.4946V13.8837ZM53.4946 13.6279H53.7504V13.8837H53.4946V13.6279ZM53.2388 13.6279H53.4946V13.8837H53.2388V13.6279ZM52.983 13.6279H53.2388V13.8837H52.983V13.6279ZM52.983 13.8837H53.2388V14.1395H52.983V13.8837ZM52.983 14.1395H53.2388V14.3953H52.983V14.1395ZM52.983 14.3953H53.2388V14.6512H52.983V14.3953ZM52.983 14.6512H53.2388V14.907H52.983V14.6512ZM52.983 14.907H53.2388V15.1628H52.983V14.907ZM52.983 15.1628H53.2388V15.4186H52.983V15.1628ZM52.983 15.4186H53.2388V15.6744H52.983V15.4186ZM52.983 15.6744H53.2388V15.9302H52.983V15.6744ZM52.983 15.9302H53.2388V16.186H52.983V15.9302ZM53.2388 15.6744H53.4946V15.9302H53.2388V15.6744ZM53.2388 15.4186H53.4946V15.6744H53.2388V15.4186ZM53.2388 15.1628H53.4946V15.4186H53.2388V15.1628ZM53.2388 14.907H53.4946V15.1628H53.2388V14.907ZM53.2388 14.3953H53.4946V14.6512H53.2388V14.3953ZM53.2388 14.1395H53.4946V14.3953H53.2388V14.1395ZM53.2388 13.8837H53.4946V14.1395H53.2388V13.8837ZM53.2388 14.6512H53.4946V14.907H53.2388V14.6512ZM52.7272 14.6512H52.983V14.907H52.7272V14.6512ZM52.4714 14.6512H52.7272V14.907H52.4714V14.6512ZM52.2155 14.6512H52.4714V14.907H52.2155V14.6512ZM51.9597 14.6512H52.2155V14.907H51.9597V14.6512ZM51.9597 14.907H52.2155V15.1628H51.9597V14.907ZM52.2155 14.907H52.4714V15.1628H52.2155V14.907ZM52.4714 14.907H52.7272V15.1628H52.4714V14.907ZM52.7272 14.907H52.983V15.1628H52.7272V14.907ZM52.7272 15.6744H52.983V15.9302H52.7272V15.6744ZM52.4714 15.6744H52.7272V15.9302H52.4714V15.6744ZM52.2155 15.6744H52.4714V15.9302H52.2155V15.6744ZM51.9597 15.6744H52.2155V15.9302H51.9597V15.6744ZM51.9597 15.9302H52.2155V16.186H51.9597V15.9302ZM52.2155 15.9302H52.4714V16.186H52.2155V15.9302ZM52.4714 15.9302H52.7272V16.186H52.4714V15.9302ZM52.7272 15.9302H52.983V16.186H52.7272V15.9302ZM53.2388 15.9302H53.4946V16.186H53.2388V15.9302ZM53.4946 15.9302H53.7504V16.186H53.4946V15.9302ZM53.7504 15.9302H54.0062V16.186H53.7504V15.9302ZM54.5179 15.9302H54.7737V16.186H54.5179V15.9302ZM54.7737 15.9302H55.0295V16.186H54.7737V15.9302ZM52.983 16.186H53.2388V16.4419H52.983V16.186ZM52.983 16.4419H53.2388V16.6977H52.983V16.4419ZM53.2388 16.4419H53.4946V16.6977H53.2388V16.4419ZM53.4946 16.4419H53.7504V16.6977H53.4946V16.4419ZM53.7504 16.4419H54.0062V16.6977H53.7504V16.4419ZM53.7504 16.186H54.0062V16.4419H53.7504V16.186ZM53.4946 16.186H53.7504V16.4419H53.4946V16.186ZM53.2388 16.186H53.4946V16.4419H53.2388V16.186ZM54.5179 16.186H54.7737V16.4419H54.5179V16.186ZM54.7737 16.186H55.0295V16.4419H54.7737V16.186ZM54.7737 16.4419H55.0295V16.6977H54.7737V16.4419ZM54.5179 16.4419H54.7737V16.6977H54.5179V16.4419ZM55.5411 12.6047H55.7969V12.8605H55.5411V12.6047ZM55.7969 12.6047H56.0528V12.8605H55.7969V12.6047ZM55.7969 12.8605H56.0528V13.1163H55.7969V12.8605ZM55.5411 12.8605H55.7969V13.1163H55.5411V12.8605ZM55.5411 13.1163H55.7969V13.3721H55.5411V13.1163ZM55.7969 13.1163H56.0528V13.3721H55.7969V13.1163ZM55.7969 13.3721H56.0528V13.6279H55.7969V13.3721ZM55.5411 13.3721H55.7969V13.6279H55.5411V13.3721ZM55.5411 13.6279H55.7969V13.8837H55.5411V13.6279ZM55.5411 13.8837H55.7969V14.1395H55.5411V13.8837ZM55.5411 14.1395H55.7969V14.3953H55.5411V14.1395ZM55.5411 14.3953H55.7969V14.6512H55.5411V14.3953ZM55.5411 14.6512H55.7969V14.907H55.5411V14.6512ZM55.5411 14.907H55.7969V15.1628H55.5411V14.907ZM55.7969 14.6512H56.0528V14.907H55.7969V14.6512ZM55.7969 14.3953H56.0528V14.6512H55.7969V14.3953ZM55.7969 14.1395H56.0528V14.3953H55.7969V14.1395ZM55.7969 13.8837H56.0528V14.1395H55.7969V13.8837ZM55.7969 13.6279H56.0528V13.8837H55.7969V13.6279ZM55.7969 14.907H56.0528V15.1628H55.7969V14.907ZM56.0528 13.1163H56.3086V13.3721H56.0528V13.1163ZM56.3086 13.1163H56.5644V13.3721H56.3086V13.1163ZM56.3086 13.3721H56.5644V13.6279H56.3086V13.3721ZM56.3086 13.6279H56.5644V13.8837H56.3086V13.6279ZM56.3086 13.8837H56.5644V14.1395H56.3086V13.8837ZM56.0528 13.8837H56.3086V14.1395H56.0528V13.8837ZM56.0528 14.1395H56.3086V14.3953H56.0528V14.1395ZM56.0528 14.3953H56.3086V14.6512H56.0528V14.3953ZM56.0528 14.6512H56.3086V14.907H56.0528V14.6512ZM56.0528 13.6279H56.3086V13.8837H56.0528V13.6279ZM56.0528 13.3721H56.3086V13.6279H56.0528V13.3721ZM56.0528 14.907H56.3086V15.1628H56.0528V14.907ZM56.3086 14.6512H56.5644V14.907H56.3086V14.6512ZM56.3086 14.3953H56.5644V14.6512H56.3086V14.3953ZM56.3086 14.1395H56.5644V14.3953H56.3086V14.1395ZM56.3086 14.907H56.5644V15.1628H56.3086V14.907ZM55.5411 15.1628H55.7969V15.4186H55.5411V15.1628ZM55.5411 15.4186H55.7969V15.6744H55.5411V15.4186ZM55.5411 15.6744H55.7969V15.9302H55.5411V15.6744ZM55.5411 15.9302H55.7969V16.186H55.5411V15.9302ZM55.5411 16.186H55.7969V16.4419H55.5411V16.186ZM55.5411 16.4419H55.7969V16.6977H55.5411V16.4419ZM55.7969 16.4419H56.0528V16.6977H55.7969V16.4419ZM56.0528 16.4419H56.3086V16.6977H56.0528V16.4419ZM56.3086 16.4419H56.5644V16.6977H56.3086V16.4419ZM56.3086 16.186H56.5644V16.4419H56.3086V16.186ZM56.3086 15.9302H56.5644V16.186H56.3086V15.9302ZM56.3086 15.6744H56.5644V15.9302H56.3086V15.6744ZM56.3086 15.4186H56.5644V15.6744H56.3086V15.4186ZM56.3086 15.1628H56.5644V15.4186H56.3086V15.1628ZM56.0528 15.1628H56.3086V15.4186H56.0528V15.1628ZM56.0528 15.4186H56.3086V15.6744H56.0528V15.4186ZM56.0528 15.6744H56.3086V15.9302H56.0528V15.6744ZM56.0528 15.9302H56.3086V16.186H56.0528V15.9302ZM56.0528 16.186H56.3086V16.4419H56.0528V16.186ZM55.7969 16.186H56.0528V16.4419H55.7969V16.186ZM55.7969 15.9302H56.0528V16.186H55.7969V15.9302ZM55.7969 15.6744H56.0528V15.9302H55.7969V15.6744ZM55.7969 15.4186H56.0528V15.6744H55.7969V15.4186ZM55.7969 15.1628H56.0528V15.4186H55.7969V15.1628ZM53.7504 18.7442H54.0062V19H53.7504V18.7442ZM53.4946 18.7442H53.7504V19H53.4946V18.7442ZM53.4946 18.4884H53.7504V18.7442H53.4946V18.4884ZM53.7504 18.4884H54.0062V18.7442H53.7504V18.4884ZM54.0062 18.2326H54.2621V18.4884H54.0062V18.2326ZM54.2621 17.9767H54.5179V18.2326H54.2621V17.9767ZM54.2621 18.2326H54.5179V18.4884H54.2621V18.2326ZM54.5179 17.7209H54.7737V17.9767H54.5179V17.7209ZM54.5179 17.4651H54.7737V17.7209H54.5179V17.4651ZM54.7737 17.4651H55.0295V17.7209H54.7737V17.4651ZM54.7737 17.7209H55.0295V17.9767H54.7737V17.7209ZM54.5179 17.2093H54.7737V17.4651H54.5179V17.2093ZM54.7737 17.2093H55.0295V17.4651H54.7737V17.2093ZM54.7737 16.9535H55.0295V17.2093H54.7737V16.9535ZM54.7737 16.6977H55.0295V16.9535H54.7737V16.6977ZM54.5179 16.9535H54.7737V17.2093H54.5179V16.9535ZM54.5179 16.6977H54.7737V16.9535H54.5179V16.6977ZM53.7504 16.6977H54.0062V16.9535H53.7504V16.6977ZM53.2388 16.6977H53.4946V16.9535H53.2388V16.6977ZM53.4946 16.6977H53.7504V16.9535H53.4946V16.6977ZM52.983 16.6977H53.2388V16.9535H52.983V16.6977ZM52.7272 17.9767H52.983V18.2326H52.7272V17.9767ZM52.4714 17.9767H52.7272V18.2326H52.4714V17.9767ZM52.4714 18.2326H52.7272V18.4884H52.4714V18.2326ZM52.7272 18.2326H52.983V18.4884H52.7272V18.2326ZM53.2388 18.4884H53.4946V18.7442H53.2388V18.4884ZM52.983 18.4884H53.2388V18.7442H52.983V18.4884ZM52.983 18.7442H53.2388V19H52.983V18.7442ZM53.2388 18.7442H53.4946V19H53.2388V18.7442ZM52.983 17.9767H53.2388V18.2326H52.983V17.9767ZM53.2388 17.9767H53.4946V18.2326H53.2388V17.9767ZM53.7504 18.2326H54.0062V18.4884H53.7504V18.2326ZM53.4946 18.2326H53.7504V18.4884H53.4946V18.2326ZM53.2388 18.2326H53.4946V18.4884H53.2388V18.2326ZM52.983 18.2326H53.2388V18.4884H52.983V18.2326ZM52.7272 17.7209H52.983V17.9767H52.7272V17.7209ZM52.4714 17.7209H52.7272V17.9767H52.4714V17.7209ZM52.2155 17.9767H52.4714V18.2326H52.2155V17.9767ZM51.9597 17.9767H52.2155V18.2326H51.9597V17.9767ZM51.9597 18.2326H52.2155V18.4884H51.9597V18.2326ZM52.2155 18.2326H52.4714V18.4884H52.2155V18.2326ZM51.7039 17.9767H51.9597V18.2326H51.7039V17.9767ZM51.7039 18.2326H51.9597V18.4884H51.7039V18.2326ZM51.4481 18.2326H51.7039V18.4884H51.4481V18.2326ZM51.4481 17.9767H51.7039V18.2326H51.4481V17.9767ZM51.1923 18.4884H51.4481V18.7442H51.1923V18.4884ZM50.9365 18.4884H51.1923V18.7442H50.9365V18.4884ZM50.9365 18.7442H51.1923V19H50.9365V18.7442ZM52.983 17.2093H53.2388V17.4651H52.983V17.2093ZM52.983 16.9535H53.2388V17.2093H52.983V16.9535ZM53.2388 16.9535H53.4946V17.2093H53.2388V16.9535ZM53.4946 16.9535H53.7504V17.2093H53.4946V16.9535ZM53.7504 16.9535H54.0062V17.2093H53.7504V16.9535ZM53.7504 17.2093H54.0062V17.4651H53.7504V17.2093ZM53.4946 17.2093H53.7504V17.4651H53.4946V17.2093ZM53.2388 17.2093H53.4946V17.4651H53.2388V17.2093ZM55.5411 17.4651H55.7969V17.7209H55.5411V17.4651ZM55.5411 17.2093H55.7969V17.4651H55.5411V17.2093ZM55.5411 16.9535H55.7969V17.2093H55.5411V16.9535ZM55.5411 16.6977H55.7969V16.9535H55.5411V16.6977ZM55.7969 16.6977H56.0528V16.9535H55.7969V16.6977ZM56.0528 16.6977H56.3086V16.9535H56.0528V16.6977ZM56.3086 16.6977H56.5644V16.9535H56.3086V16.6977ZM56.3086 16.9535H56.5644V17.2093H56.3086V16.9535ZM56.3086 17.2093H56.5644V17.4651H56.3086V17.2093ZM56.3086 17.4651H56.5644V17.7209H56.3086V17.4651ZM55.7969 17.4651H56.0528V17.7209H55.7969V17.4651ZM55.7969 17.2093H56.0528V17.4651H55.7969V17.2093ZM55.7969 16.9535H56.0528V17.2093H55.7969V16.9535ZM56.0528 16.9535H56.3086V17.2093H56.0528V16.9535ZM56.0528 17.2093H56.3086V17.4651H56.0528V17.2093ZM56.0528 17.4651H56.3086V17.7209H56.0528V17.4651ZM56.5644 13.1163H56.8202V13.3721H56.5644V13.1163ZM56.8202 13.1163H57.076V13.3721H56.8202V13.1163ZM56.5644 13.3721H56.8202V13.6279H56.5644V13.3721ZM51.1923 18.2326H51.4481V18.4884H51.1923V18.2326ZM51.9597 17.7209H52.2155V17.9767H51.9597V17.7209ZM52.2155 17.7209H52.4714V17.9767H52.2155V17.7209ZM54.0062 18.4884H54.2621V18.7442H54.0062V18.4884ZM54.5179 17.9767H54.7737V18.2326H54.5179V17.9767ZM52.7272 18.4884H52.983V18.7442H52.7272V18.4884ZM52.4714 18.4884H52.7272V18.7442H52.4714V18.4884ZM52.983 17.7209H53.2388V17.9767H52.983V17.7209ZM52.2155 18.4884H52.4714V18.7442H52.2155V18.4884ZM52.4714 18.7442H52.7272V19H52.4714V18.7442ZM52.7272 18.7442H52.983V19H52.7272V18.7442ZM51.7039 12.8605H51.9597V13.1163H51.7039V12.8605ZM52.2155 13.1163H52.4714V13.3721H52.2155V13.1163ZM52.4714 13.3721H52.7272V13.6279H52.4714V13.3721ZM52.7272 13.6279H52.983V13.8837H52.7272V13.6279ZM51.1923 13.6279H51.4481V13.8837H51.1923V13.6279ZM54.5179 13.8837H54.7737V14.1395H54.5179V13.8837ZM54.5179 14.1395H54.7737V14.3953H54.5179V14.1395ZM54.2621 13.3721H54.5179V13.6279H54.2621V13.3721ZM54.7737 12.8605H55.0295V13.1163H54.7737V12.8605ZM56.0528 12.8605H56.3086V13.1163H56.0528V12.8605ZM55.2853 13.1163H55.5411V13.3721H55.2853V13.1163ZM56.8202 12.8605H57.076V13.1163H56.8202V12.8605ZM55.5411 17.7209H55.7969V17.9767H55.5411V17.7209ZM55.5411 17.9767H55.7969V18.2326H55.5411V17.9767ZM55.5411 18.2326H55.7969V18.4884H55.5411V18.2326ZM55.7969 18.2326H56.0528V18.4884H55.7969V18.2326ZM56.0528 18.2326H56.3086V18.4884H56.0528V18.2326ZM56.3086 18.2326H56.5644V18.4884H56.3086V18.2326ZM56.3086 17.9767H56.5644V18.2326H56.3086V17.9767ZM56.3086 17.7209H56.5644V17.9767H56.3086V17.7209ZM55.7969 17.7209H56.0528V17.9767H55.7969V17.7209ZM55.7969 17.9767H56.0528V18.2326H55.7969V17.9767ZM56.0528 17.9767H56.3086V18.2326H56.0528V17.9767ZM56.0528 17.7209H56.3086V17.9767H56.0528V17.7209ZM56.3086 18.4884H56.5644V18.7442H56.3086V18.4884ZM56.0528 18.4884H56.3086V18.7442H56.0528V18.4884ZM56.0528 18.7442H56.3086V19H56.0528V18.7442ZM56.3086 18.7442H56.5644V19H56.3086V18.7442ZM56.5644 17.9767H56.8202V18.2326H56.5644V17.9767ZM56.8202 17.9767H57.076V18.2326H56.8202V17.9767ZM56.8202 18.2326H57.076V18.4884H56.8202V18.2326ZM56.5644 18.2326H56.8202V18.4884H56.5644V18.2326ZM56.5644 18.4884H56.8202V18.7442H56.5644V18.4884ZM57.076 12.8605H57.3318V13.1163H57.076V12.8605ZM57.076 12.6047H57.3318V12.8605H57.076V12.6047ZM55.7969 18.4884H56.0528V18.7442H55.7969V18.4884Z" fill="white"/>
</svg>
